<mxfile host="app.diagrams.net" modified="2023-10-08T08:28:13.956Z" agent="Mozilla/5.0 (Windows NT 10.0; Win64; x64) AppleWebKit/537.36 (KHTML, like Gecko) Chrome/117.0.0.0 Safari/537.36" etag="2kJ03w9gnYLm_aDdOUao" version="22.0.4" type="device">
  <diagram name="Page-1" id="HVCOL59Vw6aDZfQ2NulE">
    <mxGraphModel dx="545" dy="1250" grid="1" gridSize="10" guides="1" tooltips="1" connect="1" arrows="1" fold="1" page="1" pageScale="1" pageWidth="850" pageHeight="1100" math="0" shadow="0">
      <root>
        <mxCell id="0" />
        <mxCell id="1" parent="0" />
        <mxCell id="cibkfDz7cFinpJiNGXJI-1428" value="" style="rounded=0;whiteSpace=wrap;html=1;" vertex="1" parent="1">
          <mxGeometry x="250" y="780" width="300" height="220" as="geometry" />
        </mxCell>
        <mxCell id="cibkfDz7cFinpJiNGXJI-1429" value="block" style="rounded=0;whiteSpace=wrap;html=1;strokeColor=#35b7c0;strokeWidth=2;" vertex="1" parent="1">
          <mxGeometry x="300" y="930" width="60" height="60" as="geometry" />
        </mxCell>
        <mxCell id="cibkfDz7cFinpJiNGXJI-1430" value="" style="rounded=0;whiteSpace=wrap;html=1;strokeColor=#35b7c0;strokeWidth=2;" vertex="1" parent="1">
          <mxGeometry x="300" y="870" width="60" height="60" as="geometry" />
        </mxCell>
        <mxCell id="cibkfDz7cFinpJiNGXJI-1431" value="" style="rounded=0;whiteSpace=wrap;html=1;strokeColor=#35b7c0;strokeWidth=2;" vertex="1" parent="1">
          <mxGeometry x="300" y="810" width="60" height="60" as="geometry" />
        </mxCell>
        <mxCell id="cibkfDz7cFinpJiNGXJI-1432" value="block" style="rounded=0;whiteSpace=wrap;html=1;strokeColor=#35b7c0;strokeWidth=2;" vertex="1" parent="1">
          <mxGeometry x="360" y="930" width="60" height="60" as="geometry" />
        </mxCell>
        <mxCell id="cibkfDz7cFinpJiNGXJI-1433" value="" style="rounded=0;whiteSpace=wrap;html=1;strokeColor=#35b7c0;strokeWidth=2;" vertex="1" parent="1">
          <mxGeometry x="360" y="870" width="60" height="60" as="geometry" />
        </mxCell>
        <mxCell id="cibkfDz7cFinpJiNGXJI-1434" value="" style="rounded=0;whiteSpace=wrap;html=1;strokeColor=#35b7c0;strokeWidth=2;" vertex="1" parent="1">
          <mxGeometry x="360" y="810" width="60" height="60" as="geometry" />
        </mxCell>
        <mxCell id="cibkfDz7cFinpJiNGXJI-1435" value="block" style="rounded=0;whiteSpace=wrap;html=1;strokeColor=#35b7c0;strokeWidth=2;" vertex="1" parent="1">
          <mxGeometry x="420" y="930" width="60" height="60" as="geometry" />
        </mxCell>
        <mxCell id="cibkfDz7cFinpJiNGXJI-1436" value="" style="rounded=0;whiteSpace=wrap;html=1;strokeColor=#35b7c0;strokeWidth=2;" vertex="1" parent="1">
          <mxGeometry x="420" y="870" width="60" height="60" as="geometry" />
        </mxCell>
        <mxCell id="cibkfDz7cFinpJiNGXJI-1437" value="" style="rounded=0;whiteSpace=wrap;html=1;strokeColor=#35b7c0;strokeWidth=2;" vertex="1" parent="1">
          <mxGeometry x="420" y="810" width="60" height="60" as="geometry" />
        </mxCell>
        <mxCell id="cibkfDz7cFinpJiNGXJI-1438" value="block" style="rounded=0;whiteSpace=wrap;html=1;strokeColor=#35b7c0;strokeWidth=2;" vertex="1" parent="1">
          <mxGeometry x="480" y="930" width="60" height="60" as="geometry" />
        </mxCell>
        <mxCell id="cibkfDz7cFinpJiNGXJI-1439" value="" style="rounded=0;whiteSpace=wrap;html=1;strokeColor=#35b7c0;strokeWidth=2;" vertex="1" parent="1">
          <mxGeometry x="300" y="870" width="60" height="60" as="geometry" />
        </mxCell>
        <mxCell id="cibkfDz7cFinpJiNGXJI-1440" value="" style="rounded=0;whiteSpace=wrap;html=1;dashed=1;strokeWidth=1;" vertex="1" parent="1">
          <mxGeometry x="300" y="910" width="10" height="10" as="geometry" />
        </mxCell>
        <mxCell id="cibkfDz7cFinpJiNGXJI-1441" value="" style="rounded=0;whiteSpace=wrap;html=1;dashed=1;strokeWidth=1;" vertex="1" parent="1">
          <mxGeometry x="310" y="910" width="10" height="10" as="geometry" />
        </mxCell>
        <mxCell id="cibkfDz7cFinpJiNGXJI-1442" value="" style="rounded=0;whiteSpace=wrap;html=1;dashed=1;strokeWidth=1;" vertex="1" parent="1">
          <mxGeometry x="320" y="910" width="10" height="10" as="geometry" />
        </mxCell>
        <mxCell id="cibkfDz7cFinpJiNGXJI-1443" value="" style="rounded=0;whiteSpace=wrap;html=1;dashed=1;strokeWidth=1;" vertex="1" parent="1">
          <mxGeometry x="300" y="920" width="10" height="10" as="geometry" />
        </mxCell>
        <mxCell id="cibkfDz7cFinpJiNGXJI-1444" value="" style="rounded=0;whiteSpace=wrap;html=1;dashed=1;strokeWidth=1;" vertex="1" parent="1">
          <mxGeometry x="310" y="920" width="10" height="10" as="geometry" />
        </mxCell>
        <mxCell id="cibkfDz7cFinpJiNGXJI-1445" value="" style="rounded=0;whiteSpace=wrap;html=1;dashed=1;strokeWidth=1;" vertex="1" parent="1">
          <mxGeometry x="320" y="920" width="10" height="10" as="geometry" />
        </mxCell>
        <mxCell id="cibkfDz7cFinpJiNGXJI-1446" value="" style="rounded=0;whiteSpace=wrap;html=1;dashed=1;strokeWidth=1;" vertex="1" parent="1">
          <mxGeometry x="300" y="900" width="10" height="10" as="geometry" />
        </mxCell>
        <mxCell id="cibkfDz7cFinpJiNGXJI-1447" value="" style="rounded=0;whiteSpace=wrap;html=1;dashed=1;strokeWidth=1;" vertex="1" parent="1">
          <mxGeometry x="310" y="900" width="10" height="10" as="geometry" />
        </mxCell>
        <mxCell id="cibkfDz7cFinpJiNGXJI-1448" value="" style="rounded=0;whiteSpace=wrap;html=1;dashed=1;strokeWidth=1;" vertex="1" parent="1">
          <mxGeometry x="320" y="900" width="10" height="10" as="geometry" />
        </mxCell>
        <mxCell id="cibkfDz7cFinpJiNGXJI-1449" value="" style="rounded=0;whiteSpace=wrap;html=1;dashed=1;strokeWidth=1;" vertex="1" parent="1">
          <mxGeometry x="330" y="910" width="10" height="10" as="geometry" />
        </mxCell>
        <mxCell id="cibkfDz7cFinpJiNGXJI-1450" value="" style="rounded=0;whiteSpace=wrap;html=1;dashed=1;strokeWidth=1;" vertex="1" parent="1">
          <mxGeometry x="340" y="910" width="10" height="10" as="geometry" />
        </mxCell>
        <mxCell id="cibkfDz7cFinpJiNGXJI-1451" value="" style="rounded=0;whiteSpace=wrap;html=1;dashed=1;strokeWidth=1;" vertex="1" parent="1">
          <mxGeometry x="350" y="910" width="10" height="10" as="geometry" />
        </mxCell>
        <mxCell id="cibkfDz7cFinpJiNGXJI-1452" value="" style="rounded=0;whiteSpace=wrap;html=1;dashed=1;strokeWidth=1;" vertex="1" parent="1">
          <mxGeometry x="330" y="920" width="10" height="10" as="geometry" />
        </mxCell>
        <mxCell id="cibkfDz7cFinpJiNGXJI-1453" value="" style="rounded=0;whiteSpace=wrap;html=1;dashed=1;strokeWidth=1;" vertex="1" parent="1">
          <mxGeometry x="340" y="920" width="10" height="10" as="geometry" />
        </mxCell>
        <mxCell id="cibkfDz7cFinpJiNGXJI-1454" value="" style="rounded=0;whiteSpace=wrap;html=1;dashed=1;strokeWidth=1;" vertex="1" parent="1">
          <mxGeometry x="350" y="920" width="10" height="10" as="geometry" />
        </mxCell>
        <mxCell id="cibkfDz7cFinpJiNGXJI-1455" value="" style="rounded=0;whiteSpace=wrap;html=1;dashed=1;strokeWidth=1;" vertex="1" parent="1">
          <mxGeometry x="330" y="900" width="10" height="10" as="geometry" />
        </mxCell>
        <mxCell id="cibkfDz7cFinpJiNGXJI-1456" value="" style="rounded=0;whiteSpace=wrap;html=1;dashed=1;strokeWidth=1;" vertex="1" parent="1">
          <mxGeometry x="340" y="900" width="10" height="10" as="geometry" />
        </mxCell>
        <mxCell id="cibkfDz7cFinpJiNGXJI-1457" value="" style="rounded=0;whiteSpace=wrap;html=1;dashed=1;strokeWidth=1;" vertex="1" parent="1">
          <mxGeometry x="350" y="900" width="10" height="10" as="geometry" />
        </mxCell>
        <mxCell id="cibkfDz7cFinpJiNGXJI-1458" value="" style="rounded=0;whiteSpace=wrap;html=1;dashed=1;strokeWidth=1;" vertex="1" parent="1">
          <mxGeometry x="300" y="880" width="10" height="10" as="geometry" />
        </mxCell>
        <mxCell id="cibkfDz7cFinpJiNGXJI-1459" value="" style="rounded=0;whiteSpace=wrap;html=1;dashed=1;strokeWidth=1;" vertex="1" parent="1">
          <mxGeometry x="310" y="880" width="10" height="10" as="geometry" />
        </mxCell>
        <mxCell id="cibkfDz7cFinpJiNGXJI-1460" value="" style="rounded=0;whiteSpace=wrap;html=1;dashed=1;strokeWidth=1;" vertex="1" parent="1">
          <mxGeometry x="320" y="880" width="10" height="10" as="geometry" />
        </mxCell>
        <mxCell id="cibkfDz7cFinpJiNGXJI-1461" value="" style="rounded=0;whiteSpace=wrap;html=1;dashed=1;strokeWidth=1;" vertex="1" parent="1">
          <mxGeometry x="300" y="890" width="10" height="10" as="geometry" />
        </mxCell>
        <mxCell id="cibkfDz7cFinpJiNGXJI-1462" value="" style="rounded=0;whiteSpace=wrap;html=1;dashed=1;strokeWidth=1;" vertex="1" parent="1">
          <mxGeometry x="310" y="890" width="10" height="10" as="geometry" />
        </mxCell>
        <mxCell id="cibkfDz7cFinpJiNGXJI-1463" value="" style="rounded=0;whiteSpace=wrap;html=1;dashed=1;strokeWidth=1;" vertex="1" parent="1">
          <mxGeometry x="320" y="890" width="10" height="10" as="geometry" />
        </mxCell>
        <mxCell id="cibkfDz7cFinpJiNGXJI-1464" value="" style="rounded=0;whiteSpace=wrap;html=1;dashed=1;strokeWidth=1;" vertex="1" parent="1">
          <mxGeometry x="300" y="870" width="10" height="10" as="geometry" />
        </mxCell>
        <mxCell id="cibkfDz7cFinpJiNGXJI-1465" value="" style="rounded=0;whiteSpace=wrap;html=1;dashed=1;strokeWidth=1;" vertex="1" parent="1">
          <mxGeometry x="310" y="870" width="10" height="10" as="geometry" />
        </mxCell>
        <mxCell id="cibkfDz7cFinpJiNGXJI-1466" value="" style="rounded=0;whiteSpace=wrap;html=1;dashed=1;strokeWidth=1;" vertex="1" parent="1">
          <mxGeometry x="320" y="870" width="10" height="10" as="geometry" />
        </mxCell>
        <mxCell id="cibkfDz7cFinpJiNGXJI-1467" value="" style="rounded=0;whiteSpace=wrap;html=1;dashed=1;strokeWidth=1;" vertex="1" parent="1">
          <mxGeometry x="330" y="880" width="10" height="10" as="geometry" />
        </mxCell>
        <mxCell id="cibkfDz7cFinpJiNGXJI-1468" value="" style="rounded=0;whiteSpace=wrap;html=1;dashed=1;strokeWidth=1;" vertex="1" parent="1">
          <mxGeometry x="340" y="880" width="10" height="10" as="geometry" />
        </mxCell>
        <mxCell id="cibkfDz7cFinpJiNGXJI-1469" value="" style="rounded=0;whiteSpace=wrap;html=1;dashed=1;strokeWidth=1;" vertex="1" parent="1">
          <mxGeometry x="350" y="880" width="10" height="10" as="geometry" />
        </mxCell>
        <mxCell id="cibkfDz7cFinpJiNGXJI-1470" value="" style="rounded=0;whiteSpace=wrap;html=1;dashed=1;strokeWidth=1;" vertex="1" parent="1">
          <mxGeometry x="330" y="890" width="10" height="10" as="geometry" />
        </mxCell>
        <mxCell id="cibkfDz7cFinpJiNGXJI-1471" value="" style="rounded=0;whiteSpace=wrap;html=1;dashed=1;strokeWidth=1;" vertex="1" parent="1">
          <mxGeometry x="340" y="890" width="10" height="10" as="geometry" />
        </mxCell>
        <mxCell id="cibkfDz7cFinpJiNGXJI-1472" value="" style="rounded=0;whiteSpace=wrap;html=1;dashed=1;strokeWidth=1;" vertex="1" parent="1">
          <mxGeometry x="350" y="890" width="10" height="10" as="geometry" />
        </mxCell>
        <mxCell id="cibkfDz7cFinpJiNGXJI-1473" value="" style="rounded=0;whiteSpace=wrap;html=1;dashed=1;strokeWidth=1;" vertex="1" parent="1">
          <mxGeometry x="330" y="870" width="10" height="10" as="geometry" />
        </mxCell>
        <mxCell id="cibkfDz7cFinpJiNGXJI-1474" value="" style="rounded=0;whiteSpace=wrap;html=1;dashed=1;strokeWidth=1;" vertex="1" parent="1">
          <mxGeometry x="340" y="870" width="10" height="10" as="geometry" />
        </mxCell>
        <mxCell id="cibkfDz7cFinpJiNGXJI-1475" value="" style="rounded=0;whiteSpace=wrap;html=1;dashed=1;strokeWidth=1;" vertex="1" parent="1">
          <mxGeometry x="350" y="870" width="10" height="10" as="geometry" />
        </mxCell>
        <mxCell id="cibkfDz7cFinpJiNGXJI-1476" value="" style="rounded=0;whiteSpace=wrap;html=1;strokeColor=#35b7c0;strokeWidth=2;" vertex="1" parent="1">
          <mxGeometry x="360" y="870" width="60" height="60" as="geometry" />
        </mxCell>
        <mxCell id="cibkfDz7cFinpJiNGXJI-1477" value="" style="rounded=0;whiteSpace=wrap;html=1;dashed=1;strokeWidth=1;" vertex="1" parent="1">
          <mxGeometry x="360" y="910" width="10" height="10" as="geometry" />
        </mxCell>
        <mxCell id="cibkfDz7cFinpJiNGXJI-1478" value="" style="rounded=0;whiteSpace=wrap;html=1;dashed=1;strokeWidth=1;" vertex="1" parent="1">
          <mxGeometry x="370" y="910" width="10" height="10" as="geometry" />
        </mxCell>
        <mxCell id="cibkfDz7cFinpJiNGXJI-1479" value="" style="rounded=0;whiteSpace=wrap;html=1;dashed=1;strokeWidth=1;" vertex="1" parent="1">
          <mxGeometry x="380" y="910" width="10" height="10" as="geometry" />
        </mxCell>
        <mxCell id="cibkfDz7cFinpJiNGXJI-1480" value="" style="rounded=0;whiteSpace=wrap;html=1;dashed=1;strokeWidth=1;" vertex="1" parent="1">
          <mxGeometry x="360" y="920" width="10" height="10" as="geometry" />
        </mxCell>
        <mxCell id="cibkfDz7cFinpJiNGXJI-1481" value="" style="rounded=0;whiteSpace=wrap;html=1;dashed=1;strokeWidth=1;" vertex="1" parent="1">
          <mxGeometry x="370" y="920" width="10" height="10" as="geometry" />
        </mxCell>
        <mxCell id="cibkfDz7cFinpJiNGXJI-1482" value="" style="rounded=0;whiteSpace=wrap;html=1;dashed=1;strokeWidth=1;" vertex="1" parent="1">
          <mxGeometry x="380" y="920" width="10" height="10" as="geometry" />
        </mxCell>
        <mxCell id="cibkfDz7cFinpJiNGXJI-1483" value="" style="rounded=0;whiteSpace=wrap;html=1;dashed=1;strokeWidth=1;" vertex="1" parent="1">
          <mxGeometry x="360" y="900" width="10" height="10" as="geometry" />
        </mxCell>
        <mxCell id="cibkfDz7cFinpJiNGXJI-1484" value="" style="rounded=0;whiteSpace=wrap;html=1;dashed=1;strokeWidth=1;" vertex="1" parent="1">
          <mxGeometry x="370" y="900" width="10" height="10" as="geometry" />
        </mxCell>
        <mxCell id="cibkfDz7cFinpJiNGXJI-1485" value="" style="rounded=0;whiteSpace=wrap;html=1;dashed=1;strokeWidth=1;" vertex="1" parent="1">
          <mxGeometry x="380" y="900" width="10" height="10" as="geometry" />
        </mxCell>
        <mxCell id="cibkfDz7cFinpJiNGXJI-1486" value="" style="rounded=0;whiteSpace=wrap;html=1;dashed=1;strokeWidth=1;" vertex="1" parent="1">
          <mxGeometry x="390" y="910" width="10" height="10" as="geometry" />
        </mxCell>
        <mxCell id="cibkfDz7cFinpJiNGXJI-1487" value="" style="rounded=0;whiteSpace=wrap;html=1;dashed=1;strokeWidth=1;" vertex="1" parent="1">
          <mxGeometry x="400" y="910" width="10" height="10" as="geometry" />
        </mxCell>
        <mxCell id="cibkfDz7cFinpJiNGXJI-1488" value="" style="rounded=0;whiteSpace=wrap;html=1;dashed=1;strokeWidth=1;" vertex="1" parent="1">
          <mxGeometry x="410" y="910" width="10" height="10" as="geometry" />
        </mxCell>
        <mxCell id="cibkfDz7cFinpJiNGXJI-1489" value="" style="rounded=0;whiteSpace=wrap;html=1;dashed=1;strokeWidth=1;" vertex="1" parent="1">
          <mxGeometry x="390" y="920" width="10" height="10" as="geometry" />
        </mxCell>
        <mxCell id="cibkfDz7cFinpJiNGXJI-1490" value="" style="rounded=0;whiteSpace=wrap;html=1;dashed=1;strokeWidth=1;" vertex="1" parent="1">
          <mxGeometry x="400" y="920" width="10" height="10" as="geometry" />
        </mxCell>
        <mxCell id="cibkfDz7cFinpJiNGXJI-1491" value="" style="rounded=0;whiteSpace=wrap;html=1;dashed=1;strokeWidth=1;" vertex="1" parent="1">
          <mxGeometry x="410" y="920" width="10" height="10" as="geometry" />
        </mxCell>
        <mxCell id="cibkfDz7cFinpJiNGXJI-1492" value="" style="rounded=0;whiteSpace=wrap;html=1;dashed=1;strokeWidth=1;" vertex="1" parent="1">
          <mxGeometry x="390" y="900" width="10" height="10" as="geometry" />
        </mxCell>
        <mxCell id="cibkfDz7cFinpJiNGXJI-1493" value="" style="rounded=0;whiteSpace=wrap;html=1;dashed=1;strokeWidth=1;" vertex="1" parent="1">
          <mxGeometry x="400" y="900" width="10" height="10" as="geometry" />
        </mxCell>
        <mxCell id="cibkfDz7cFinpJiNGXJI-1494" value="" style="rounded=0;whiteSpace=wrap;html=1;dashed=1;strokeWidth=1;" vertex="1" parent="1">
          <mxGeometry x="410" y="900" width="10" height="10" as="geometry" />
        </mxCell>
        <mxCell id="cibkfDz7cFinpJiNGXJI-1495" value="" style="rounded=0;whiteSpace=wrap;html=1;dashed=1;strokeWidth=1;" vertex="1" parent="1">
          <mxGeometry x="360" y="880" width="10" height="10" as="geometry" />
        </mxCell>
        <mxCell id="cibkfDz7cFinpJiNGXJI-1496" value="" style="rounded=0;whiteSpace=wrap;html=1;dashed=1;strokeWidth=1;" vertex="1" parent="1">
          <mxGeometry x="370" y="880" width="10" height="10" as="geometry" />
        </mxCell>
        <mxCell id="cibkfDz7cFinpJiNGXJI-1497" value="" style="rounded=0;whiteSpace=wrap;html=1;dashed=1;strokeWidth=1;" vertex="1" parent="1">
          <mxGeometry x="380" y="880" width="10" height="10" as="geometry" />
        </mxCell>
        <mxCell id="cibkfDz7cFinpJiNGXJI-1498" value="" style="rounded=0;whiteSpace=wrap;html=1;dashed=1;strokeWidth=1;" vertex="1" parent="1">
          <mxGeometry x="360" y="890" width="10" height="10" as="geometry" />
        </mxCell>
        <mxCell id="cibkfDz7cFinpJiNGXJI-1499" value="" style="rounded=0;whiteSpace=wrap;html=1;dashed=1;strokeWidth=1;" vertex="1" parent="1">
          <mxGeometry x="370" y="890" width="10" height="10" as="geometry" />
        </mxCell>
        <mxCell id="cibkfDz7cFinpJiNGXJI-1500" value="" style="rounded=0;whiteSpace=wrap;html=1;dashed=1;strokeWidth=1;" vertex="1" parent="1">
          <mxGeometry x="380" y="890" width="10" height="10" as="geometry" />
        </mxCell>
        <mxCell id="cibkfDz7cFinpJiNGXJI-1501" value="" style="rounded=0;whiteSpace=wrap;html=1;dashed=1;strokeWidth=1;" vertex="1" parent="1">
          <mxGeometry x="360" y="870" width="10" height="10" as="geometry" />
        </mxCell>
        <mxCell id="cibkfDz7cFinpJiNGXJI-1502" value="" style="rounded=0;whiteSpace=wrap;html=1;dashed=1;strokeWidth=1;" vertex="1" parent="1">
          <mxGeometry x="370" y="870" width="10" height="10" as="geometry" />
        </mxCell>
        <mxCell id="cibkfDz7cFinpJiNGXJI-1503" value="" style="rounded=0;whiteSpace=wrap;html=1;dashed=1;strokeWidth=1;" vertex="1" parent="1">
          <mxGeometry x="380" y="870" width="10" height="10" as="geometry" />
        </mxCell>
        <mxCell id="cibkfDz7cFinpJiNGXJI-1504" value="" style="rounded=0;whiteSpace=wrap;html=1;dashed=1;strokeWidth=1;" vertex="1" parent="1">
          <mxGeometry x="390" y="880" width="10" height="10" as="geometry" />
        </mxCell>
        <mxCell id="cibkfDz7cFinpJiNGXJI-1505" value="" style="rounded=0;whiteSpace=wrap;html=1;dashed=1;strokeWidth=1;" vertex="1" parent="1">
          <mxGeometry x="400" y="880" width="10" height="10" as="geometry" />
        </mxCell>
        <mxCell id="cibkfDz7cFinpJiNGXJI-1506" value="" style="rounded=0;whiteSpace=wrap;html=1;dashed=1;strokeWidth=1;" vertex="1" parent="1">
          <mxGeometry x="410" y="880" width="10" height="10" as="geometry" />
        </mxCell>
        <mxCell id="cibkfDz7cFinpJiNGXJI-1507" value="" style="rounded=0;whiteSpace=wrap;html=1;dashed=1;strokeWidth=1;" vertex="1" parent="1">
          <mxGeometry x="390" y="890" width="10" height="10" as="geometry" />
        </mxCell>
        <mxCell id="cibkfDz7cFinpJiNGXJI-1508" value="" style="rounded=0;whiteSpace=wrap;html=1;dashed=1;strokeWidth=1;" vertex="1" parent="1">
          <mxGeometry x="400" y="890" width="10" height="10" as="geometry" />
        </mxCell>
        <mxCell id="cibkfDz7cFinpJiNGXJI-1509" value="" style="rounded=0;whiteSpace=wrap;html=1;dashed=1;strokeWidth=1;" vertex="1" parent="1">
          <mxGeometry x="410" y="890" width="10" height="10" as="geometry" />
        </mxCell>
        <mxCell id="cibkfDz7cFinpJiNGXJI-1510" value="" style="rounded=0;whiteSpace=wrap;html=1;dashed=1;strokeWidth=1;" vertex="1" parent="1">
          <mxGeometry x="390" y="870" width="10" height="10" as="geometry" />
        </mxCell>
        <mxCell id="cibkfDz7cFinpJiNGXJI-1511" value="" style="rounded=0;whiteSpace=wrap;html=1;dashed=1;strokeWidth=1;" vertex="1" parent="1">
          <mxGeometry x="400" y="870" width="10" height="10" as="geometry" />
        </mxCell>
        <mxCell id="cibkfDz7cFinpJiNGXJI-1512" value="" style="rounded=0;whiteSpace=wrap;html=1;dashed=1;strokeWidth=1;" vertex="1" parent="1">
          <mxGeometry x="410" y="870" width="10" height="10" as="geometry" />
        </mxCell>
        <mxCell id="cibkfDz7cFinpJiNGXJI-1513" value="" style="rounded=0;whiteSpace=wrap;html=1;strokeColor=#35b7c0;strokeWidth=2;" vertex="1" parent="1">
          <mxGeometry x="300" y="810" width="60" height="60" as="geometry" />
        </mxCell>
        <mxCell id="cibkfDz7cFinpJiNGXJI-1514" value="" style="rounded=0;whiteSpace=wrap;html=1;dashed=1;strokeWidth=1;" vertex="1" parent="1">
          <mxGeometry x="300" y="850" width="10" height="10" as="geometry" />
        </mxCell>
        <mxCell id="cibkfDz7cFinpJiNGXJI-1515" value="" style="rounded=0;whiteSpace=wrap;html=1;dashed=1;strokeWidth=1;" vertex="1" parent="1">
          <mxGeometry x="310" y="850" width="10" height="10" as="geometry" />
        </mxCell>
        <mxCell id="cibkfDz7cFinpJiNGXJI-1516" value="" style="rounded=0;whiteSpace=wrap;html=1;dashed=1;strokeWidth=1;" vertex="1" parent="1">
          <mxGeometry x="320" y="850" width="10" height="10" as="geometry" />
        </mxCell>
        <mxCell id="cibkfDz7cFinpJiNGXJI-1517" value="" style="rounded=0;whiteSpace=wrap;html=1;dashed=1;strokeWidth=1;" vertex="1" parent="1">
          <mxGeometry x="300" y="860" width="10" height="10" as="geometry" />
        </mxCell>
        <mxCell id="cibkfDz7cFinpJiNGXJI-1518" value="" style="rounded=0;whiteSpace=wrap;html=1;dashed=1;strokeWidth=1;" vertex="1" parent="1">
          <mxGeometry x="310" y="860" width="10" height="10" as="geometry" />
        </mxCell>
        <mxCell id="cibkfDz7cFinpJiNGXJI-1519" value="" style="rounded=0;whiteSpace=wrap;html=1;dashed=1;strokeWidth=1;" vertex="1" parent="1">
          <mxGeometry x="320" y="860" width="10" height="10" as="geometry" />
        </mxCell>
        <mxCell id="cibkfDz7cFinpJiNGXJI-1520" value="" style="rounded=0;whiteSpace=wrap;html=1;dashed=1;strokeWidth=1;" vertex="1" parent="1">
          <mxGeometry x="300" y="840" width="10" height="10" as="geometry" />
        </mxCell>
        <mxCell id="cibkfDz7cFinpJiNGXJI-1521" value="" style="rounded=0;whiteSpace=wrap;html=1;dashed=1;strokeWidth=1;" vertex="1" parent="1">
          <mxGeometry x="310" y="840" width="10" height="10" as="geometry" />
        </mxCell>
        <mxCell id="cibkfDz7cFinpJiNGXJI-1522" value="" style="rounded=0;whiteSpace=wrap;html=1;dashed=1;strokeWidth=1;" vertex="1" parent="1">
          <mxGeometry x="320" y="840" width="10" height="10" as="geometry" />
        </mxCell>
        <mxCell id="cibkfDz7cFinpJiNGXJI-1523" value="" style="rounded=0;whiteSpace=wrap;html=1;dashed=1;strokeWidth=1;" vertex="1" parent="1">
          <mxGeometry x="330" y="850" width="10" height="10" as="geometry" />
        </mxCell>
        <mxCell id="cibkfDz7cFinpJiNGXJI-1524" value="" style="rounded=0;whiteSpace=wrap;html=1;dashed=1;strokeWidth=1;" vertex="1" parent="1">
          <mxGeometry x="340" y="850" width="10" height="10" as="geometry" />
        </mxCell>
        <mxCell id="cibkfDz7cFinpJiNGXJI-1525" value="" style="rounded=0;whiteSpace=wrap;html=1;dashed=1;strokeWidth=1;" vertex="1" parent="1">
          <mxGeometry x="350" y="850" width="10" height="10" as="geometry" />
        </mxCell>
        <mxCell id="cibkfDz7cFinpJiNGXJI-1526" value="" style="rounded=0;whiteSpace=wrap;html=1;dashed=1;strokeWidth=1;" vertex="1" parent="1">
          <mxGeometry x="330" y="860" width="10" height="10" as="geometry" />
        </mxCell>
        <mxCell id="cibkfDz7cFinpJiNGXJI-1527" value="" style="rounded=0;whiteSpace=wrap;html=1;dashed=1;strokeWidth=1;" vertex="1" parent="1">
          <mxGeometry x="340" y="860" width="10" height="10" as="geometry" />
        </mxCell>
        <mxCell id="cibkfDz7cFinpJiNGXJI-1528" value="" style="rounded=0;whiteSpace=wrap;html=1;dashed=1;strokeWidth=1;" vertex="1" parent="1">
          <mxGeometry x="350" y="860" width="10" height="10" as="geometry" />
        </mxCell>
        <mxCell id="cibkfDz7cFinpJiNGXJI-1529" value="" style="rounded=0;whiteSpace=wrap;html=1;dashed=1;strokeWidth=1;" vertex="1" parent="1">
          <mxGeometry x="330" y="840" width="10" height="10" as="geometry" />
        </mxCell>
        <mxCell id="cibkfDz7cFinpJiNGXJI-1530" value="" style="rounded=0;whiteSpace=wrap;html=1;dashed=1;strokeWidth=1;" vertex="1" parent="1">
          <mxGeometry x="340" y="840" width="10" height="10" as="geometry" />
        </mxCell>
        <mxCell id="cibkfDz7cFinpJiNGXJI-1531" value="" style="rounded=0;whiteSpace=wrap;html=1;dashed=1;strokeWidth=1;" vertex="1" parent="1">
          <mxGeometry x="350" y="840" width="10" height="10" as="geometry" />
        </mxCell>
        <mxCell id="cibkfDz7cFinpJiNGXJI-1532" value="" style="rounded=0;whiteSpace=wrap;html=1;dashed=1;strokeWidth=1;" vertex="1" parent="1">
          <mxGeometry x="300" y="820" width="10" height="10" as="geometry" />
        </mxCell>
        <mxCell id="cibkfDz7cFinpJiNGXJI-1533" value="" style="rounded=0;whiteSpace=wrap;html=1;dashed=1;strokeWidth=1;" vertex="1" parent="1">
          <mxGeometry x="310" y="820" width="10" height="10" as="geometry" />
        </mxCell>
        <mxCell id="cibkfDz7cFinpJiNGXJI-1534" value="" style="rounded=0;whiteSpace=wrap;html=1;dashed=1;strokeWidth=1;" vertex="1" parent="1">
          <mxGeometry x="320" y="820" width="10" height="10" as="geometry" />
        </mxCell>
        <mxCell id="cibkfDz7cFinpJiNGXJI-1535" value="" style="rounded=0;whiteSpace=wrap;html=1;dashed=1;strokeWidth=1;" vertex="1" parent="1">
          <mxGeometry x="300" y="830" width="10" height="10" as="geometry" />
        </mxCell>
        <mxCell id="cibkfDz7cFinpJiNGXJI-1536" value="" style="rounded=0;whiteSpace=wrap;html=1;dashed=1;strokeWidth=1;" vertex="1" parent="1">
          <mxGeometry x="310" y="830" width="10" height="10" as="geometry" />
        </mxCell>
        <mxCell id="cibkfDz7cFinpJiNGXJI-1537" value="" style="rounded=0;whiteSpace=wrap;html=1;dashed=1;strokeWidth=1;" vertex="1" parent="1">
          <mxGeometry x="300" y="810" width="10" height="10" as="geometry" />
        </mxCell>
        <mxCell id="cibkfDz7cFinpJiNGXJI-1538" value="" style="rounded=0;whiteSpace=wrap;html=1;dashed=1;strokeWidth=1;" vertex="1" parent="1">
          <mxGeometry x="310" y="810" width="10" height="10" as="geometry" />
        </mxCell>
        <mxCell id="cibkfDz7cFinpJiNGXJI-1539" value="" style="rounded=0;whiteSpace=wrap;html=1;dashed=1;strokeWidth=1;" vertex="1" parent="1">
          <mxGeometry x="320" y="810" width="10" height="10" as="geometry" />
        </mxCell>
        <mxCell id="cibkfDz7cFinpJiNGXJI-1540" value="" style="rounded=0;whiteSpace=wrap;html=1;dashed=1;strokeWidth=1;" vertex="1" parent="1">
          <mxGeometry x="330" y="820" width="10" height="10" as="geometry" />
        </mxCell>
        <mxCell id="cibkfDz7cFinpJiNGXJI-1541" value="" style="rounded=0;whiteSpace=wrap;html=1;dashed=1;strokeWidth=1;" vertex="1" parent="1">
          <mxGeometry x="340" y="820" width="10" height="10" as="geometry" />
        </mxCell>
        <mxCell id="cibkfDz7cFinpJiNGXJI-1542" value="" style="rounded=0;whiteSpace=wrap;html=1;dashed=1;strokeWidth=1;" vertex="1" parent="1">
          <mxGeometry x="350" y="820" width="10" height="10" as="geometry" />
        </mxCell>
        <mxCell id="cibkfDz7cFinpJiNGXJI-1543" value="" style="rounded=0;whiteSpace=wrap;html=1;dashed=1;strokeWidth=1;" vertex="1" parent="1">
          <mxGeometry x="330" y="830" width="10" height="10" as="geometry" />
        </mxCell>
        <mxCell id="cibkfDz7cFinpJiNGXJI-1544" value="" style="rounded=0;whiteSpace=wrap;html=1;dashed=1;strokeWidth=1;" vertex="1" parent="1">
          <mxGeometry x="340" y="830" width="10" height="10" as="geometry" />
        </mxCell>
        <mxCell id="cibkfDz7cFinpJiNGXJI-1545" value="" style="rounded=0;whiteSpace=wrap;html=1;dashed=1;strokeWidth=1;" vertex="1" parent="1">
          <mxGeometry x="350" y="830" width="10" height="10" as="geometry" />
        </mxCell>
        <mxCell id="cibkfDz7cFinpJiNGXJI-1546" value="" style="rounded=0;whiteSpace=wrap;html=1;dashed=1;strokeWidth=1;" vertex="1" parent="1">
          <mxGeometry x="330" y="810" width="10" height="10" as="geometry" />
        </mxCell>
        <mxCell id="cibkfDz7cFinpJiNGXJI-1547" value="" style="rounded=0;whiteSpace=wrap;html=1;dashed=1;strokeWidth=1;" vertex="1" parent="1">
          <mxGeometry x="340" y="810" width="10" height="10" as="geometry" />
        </mxCell>
        <mxCell id="cibkfDz7cFinpJiNGXJI-1548" value="" style="rounded=0;whiteSpace=wrap;html=1;dashed=1;strokeWidth=1;" vertex="1" parent="1">
          <mxGeometry x="350" y="810" width="10" height="10" as="geometry" />
        </mxCell>
        <mxCell id="cibkfDz7cFinpJiNGXJI-1549" value="" style="rounded=0;whiteSpace=wrap;html=1;strokeColor=#35b7c0;strokeWidth=2;" vertex="1" parent="1">
          <mxGeometry x="360" y="810" width="60" height="60" as="geometry" />
        </mxCell>
        <mxCell id="cibkfDz7cFinpJiNGXJI-1550" value="" style="rounded=0;whiteSpace=wrap;html=1;dashed=1;strokeWidth=1;" vertex="1" parent="1">
          <mxGeometry x="360" y="850" width="10" height="10" as="geometry" />
        </mxCell>
        <mxCell id="cibkfDz7cFinpJiNGXJI-1551" value="" style="rounded=0;whiteSpace=wrap;html=1;dashed=1;strokeWidth=1;" vertex="1" parent="1">
          <mxGeometry x="370" y="850" width="10" height="10" as="geometry" />
        </mxCell>
        <mxCell id="cibkfDz7cFinpJiNGXJI-1552" value="" style="rounded=0;whiteSpace=wrap;html=1;dashed=1;strokeWidth=1;" vertex="1" parent="1">
          <mxGeometry x="380" y="850" width="10" height="10" as="geometry" />
        </mxCell>
        <mxCell id="cibkfDz7cFinpJiNGXJI-1553" value="" style="rounded=0;whiteSpace=wrap;html=1;dashed=1;strokeWidth=1;" vertex="1" parent="1">
          <mxGeometry x="360" y="860" width="10" height="10" as="geometry" />
        </mxCell>
        <mxCell id="cibkfDz7cFinpJiNGXJI-1554" value="" style="rounded=0;whiteSpace=wrap;html=1;dashed=1;strokeWidth=1;" vertex="1" parent="1">
          <mxGeometry x="370" y="860" width="10" height="10" as="geometry" />
        </mxCell>
        <mxCell id="cibkfDz7cFinpJiNGXJI-1555" value="" style="rounded=0;whiteSpace=wrap;html=1;dashed=1;strokeWidth=1;" vertex="1" parent="1">
          <mxGeometry x="380" y="860" width="10" height="10" as="geometry" />
        </mxCell>
        <mxCell id="cibkfDz7cFinpJiNGXJI-1556" value="" style="rounded=0;whiteSpace=wrap;html=1;dashed=1;strokeWidth=1;" vertex="1" parent="1">
          <mxGeometry x="360" y="840" width="10" height="10" as="geometry" />
        </mxCell>
        <mxCell id="cibkfDz7cFinpJiNGXJI-1557" value="" style="rounded=0;whiteSpace=wrap;html=1;dashed=1;strokeWidth=1;" vertex="1" parent="1">
          <mxGeometry x="370" y="840" width="10" height="10" as="geometry" />
        </mxCell>
        <mxCell id="cibkfDz7cFinpJiNGXJI-1558" value="" style="rounded=0;whiteSpace=wrap;html=1;dashed=1;strokeWidth=1;" vertex="1" parent="1">
          <mxGeometry x="380" y="840" width="10" height="10" as="geometry" />
        </mxCell>
        <mxCell id="cibkfDz7cFinpJiNGXJI-1559" value="" style="rounded=0;whiteSpace=wrap;html=1;dashed=1;strokeWidth=1;" vertex="1" parent="1">
          <mxGeometry x="390" y="850" width="10" height="10" as="geometry" />
        </mxCell>
        <mxCell id="cibkfDz7cFinpJiNGXJI-1560" value="" style="rounded=0;whiteSpace=wrap;html=1;dashed=1;strokeWidth=1;" vertex="1" parent="1">
          <mxGeometry x="400" y="850" width="10" height="10" as="geometry" />
        </mxCell>
        <mxCell id="cibkfDz7cFinpJiNGXJI-1561" value="" style="rounded=0;whiteSpace=wrap;html=1;dashed=1;strokeWidth=1;" vertex="1" parent="1">
          <mxGeometry x="410" y="850" width="10" height="10" as="geometry" />
        </mxCell>
        <mxCell id="cibkfDz7cFinpJiNGXJI-1562" value="" style="rounded=0;whiteSpace=wrap;html=1;dashed=1;strokeWidth=1;" vertex="1" parent="1">
          <mxGeometry x="390" y="860" width="10" height="10" as="geometry" />
        </mxCell>
        <mxCell id="cibkfDz7cFinpJiNGXJI-1563" value="" style="rounded=0;whiteSpace=wrap;html=1;dashed=1;strokeWidth=1;" vertex="1" parent="1">
          <mxGeometry x="400" y="860" width="10" height="10" as="geometry" />
        </mxCell>
        <mxCell id="cibkfDz7cFinpJiNGXJI-1564" value="" style="rounded=0;whiteSpace=wrap;html=1;dashed=1;strokeWidth=1;" vertex="1" parent="1">
          <mxGeometry x="410" y="860" width="10" height="10" as="geometry" />
        </mxCell>
        <mxCell id="cibkfDz7cFinpJiNGXJI-1565" value="" style="rounded=0;whiteSpace=wrap;html=1;dashed=1;strokeWidth=1;" vertex="1" parent="1">
          <mxGeometry x="390" y="840" width="10" height="10" as="geometry" />
        </mxCell>
        <mxCell id="cibkfDz7cFinpJiNGXJI-1566" value="" style="rounded=0;whiteSpace=wrap;html=1;dashed=1;strokeWidth=1;" vertex="1" parent="1">
          <mxGeometry x="400" y="840" width="10" height="10" as="geometry" />
        </mxCell>
        <mxCell id="cibkfDz7cFinpJiNGXJI-1567" value="" style="rounded=0;whiteSpace=wrap;html=1;dashed=1;strokeWidth=1;" vertex="1" parent="1">
          <mxGeometry x="410" y="840" width="10" height="10" as="geometry" />
        </mxCell>
        <mxCell id="cibkfDz7cFinpJiNGXJI-1568" value="" style="rounded=0;whiteSpace=wrap;html=1;dashed=1;strokeWidth=1;" vertex="1" parent="1">
          <mxGeometry x="360" y="820" width="10" height="10" as="geometry" />
        </mxCell>
        <mxCell id="cibkfDz7cFinpJiNGXJI-1569" value="" style="rounded=0;whiteSpace=wrap;html=1;dashed=1;strokeWidth=1;" vertex="1" parent="1">
          <mxGeometry x="370" y="820" width="10" height="10" as="geometry" />
        </mxCell>
        <mxCell id="cibkfDz7cFinpJiNGXJI-1570" value="" style="rounded=0;whiteSpace=wrap;html=1;dashed=1;strokeWidth=1;" vertex="1" parent="1">
          <mxGeometry x="380" y="820" width="10" height="10" as="geometry" />
        </mxCell>
        <mxCell id="cibkfDz7cFinpJiNGXJI-1571" value="" style="rounded=0;whiteSpace=wrap;html=1;dashed=1;strokeWidth=1;" vertex="1" parent="1">
          <mxGeometry x="360" y="830" width="10" height="10" as="geometry" />
        </mxCell>
        <mxCell id="cibkfDz7cFinpJiNGXJI-1572" value="" style="rounded=0;whiteSpace=wrap;html=1;dashed=1;strokeWidth=1;" vertex="1" parent="1">
          <mxGeometry x="370" y="830" width="10" height="10" as="geometry" />
        </mxCell>
        <mxCell id="cibkfDz7cFinpJiNGXJI-1573" value="" style="rounded=0;whiteSpace=wrap;html=1;dashed=1;strokeWidth=1;" vertex="1" parent="1">
          <mxGeometry x="380" y="830" width="10" height="10" as="geometry" />
        </mxCell>
        <mxCell id="cibkfDz7cFinpJiNGXJI-1574" value="" style="rounded=0;whiteSpace=wrap;html=1;dashed=1;strokeWidth=1;" vertex="1" parent="1">
          <mxGeometry x="360" y="810" width="10" height="10" as="geometry" />
        </mxCell>
        <mxCell id="cibkfDz7cFinpJiNGXJI-1575" value="" style="rounded=0;whiteSpace=wrap;html=1;dashed=1;strokeWidth=1;" vertex="1" parent="1">
          <mxGeometry x="370" y="810" width="10" height="10" as="geometry" />
        </mxCell>
        <mxCell id="cibkfDz7cFinpJiNGXJI-1576" value="" style="rounded=0;whiteSpace=wrap;html=1;dashed=1;strokeWidth=1;" vertex="1" parent="1">
          <mxGeometry x="380" y="810" width="10" height="10" as="geometry" />
        </mxCell>
        <mxCell id="cibkfDz7cFinpJiNGXJI-1577" value="" style="rounded=0;whiteSpace=wrap;html=1;dashed=1;strokeWidth=1;" vertex="1" parent="1">
          <mxGeometry x="390" y="820" width="10" height="10" as="geometry" />
        </mxCell>
        <mxCell id="cibkfDz7cFinpJiNGXJI-1578" value="" style="rounded=0;whiteSpace=wrap;html=1;dashed=1;strokeWidth=1;" vertex="1" parent="1">
          <mxGeometry x="400" y="820" width="10" height="10" as="geometry" />
        </mxCell>
        <mxCell id="cibkfDz7cFinpJiNGXJI-1579" value="" style="rounded=0;whiteSpace=wrap;html=1;dashed=1;strokeWidth=1;" vertex="1" parent="1">
          <mxGeometry x="410" y="820" width="10" height="10" as="geometry" />
        </mxCell>
        <mxCell id="cibkfDz7cFinpJiNGXJI-1580" value="" style="rounded=0;whiteSpace=wrap;html=1;dashed=1;strokeWidth=1;" vertex="1" parent="1">
          <mxGeometry x="390" y="830" width="10" height="10" as="geometry" />
        </mxCell>
        <mxCell id="cibkfDz7cFinpJiNGXJI-1581" value="" style="rounded=0;whiteSpace=wrap;html=1;dashed=1;strokeWidth=1;" vertex="1" parent="1">
          <mxGeometry x="400" y="830" width="10" height="10" as="geometry" />
        </mxCell>
        <mxCell id="cibkfDz7cFinpJiNGXJI-1582" value="" style="rounded=0;whiteSpace=wrap;html=1;dashed=1;strokeWidth=1;" vertex="1" parent="1">
          <mxGeometry x="410" y="830" width="10" height="10" as="geometry" />
        </mxCell>
        <mxCell id="cibkfDz7cFinpJiNGXJI-1583" value="" style="rounded=0;whiteSpace=wrap;html=1;dashed=1;strokeWidth=1;" vertex="1" parent="1">
          <mxGeometry x="390" y="810" width="10" height="10" as="geometry" />
        </mxCell>
        <mxCell id="cibkfDz7cFinpJiNGXJI-1584" value="" style="rounded=0;whiteSpace=wrap;html=1;dashed=1;strokeWidth=1;" vertex="1" parent="1">
          <mxGeometry x="400" y="810" width="10" height="10" as="geometry" />
        </mxCell>
        <mxCell id="cibkfDz7cFinpJiNGXJI-1585" value="" style="rounded=0;whiteSpace=wrap;html=1;dashed=1;strokeWidth=1;" vertex="1" parent="1">
          <mxGeometry x="410" y="810" width="10" height="10" as="geometry" />
        </mxCell>
        <mxCell id="cibkfDz7cFinpJiNGXJI-1586" value="" style="rounded=0;whiteSpace=wrap;html=1;strokeColor=#35b7c0;strokeWidth=2;" vertex="1" parent="1">
          <mxGeometry x="420" y="870" width="60" height="60" as="geometry" />
        </mxCell>
        <mxCell id="cibkfDz7cFinpJiNGXJI-1587" value="" style="rounded=0;whiteSpace=wrap;html=1;dashed=1;strokeWidth=1;" vertex="1" parent="1">
          <mxGeometry x="420" y="910" width="10" height="10" as="geometry" />
        </mxCell>
        <mxCell id="cibkfDz7cFinpJiNGXJI-1588" value="" style="rounded=0;whiteSpace=wrap;html=1;dashed=1;strokeWidth=1;" vertex="1" parent="1">
          <mxGeometry x="430" y="910" width="10" height="10" as="geometry" />
        </mxCell>
        <mxCell id="cibkfDz7cFinpJiNGXJI-1589" value="" style="rounded=0;whiteSpace=wrap;html=1;dashed=1;strokeWidth=1;" vertex="1" parent="1">
          <mxGeometry x="440" y="910" width="10" height="10" as="geometry" />
        </mxCell>
        <mxCell id="cibkfDz7cFinpJiNGXJI-1590" value="" style="rounded=0;whiteSpace=wrap;html=1;dashed=1;strokeWidth=1;" vertex="1" parent="1">
          <mxGeometry x="420" y="920" width="10" height="10" as="geometry" />
        </mxCell>
        <mxCell id="cibkfDz7cFinpJiNGXJI-1591" value="" style="rounded=0;whiteSpace=wrap;html=1;dashed=1;strokeWidth=1;" vertex="1" parent="1">
          <mxGeometry x="430" y="920" width="10" height="10" as="geometry" />
        </mxCell>
        <mxCell id="cibkfDz7cFinpJiNGXJI-1592" value="" style="rounded=0;whiteSpace=wrap;html=1;dashed=1;strokeWidth=1;" vertex="1" parent="1">
          <mxGeometry x="440" y="920" width="10" height="10" as="geometry" />
        </mxCell>
        <mxCell id="cibkfDz7cFinpJiNGXJI-1593" value="" style="rounded=0;whiteSpace=wrap;html=1;dashed=1;strokeWidth=1;" vertex="1" parent="1">
          <mxGeometry x="420" y="900" width="10" height="10" as="geometry" />
        </mxCell>
        <mxCell id="cibkfDz7cFinpJiNGXJI-1594" value="" style="rounded=0;whiteSpace=wrap;html=1;dashed=1;strokeWidth=1;" vertex="1" parent="1">
          <mxGeometry x="430" y="900" width="10" height="10" as="geometry" />
        </mxCell>
        <mxCell id="cibkfDz7cFinpJiNGXJI-1595" value="" style="rounded=0;whiteSpace=wrap;html=1;dashed=1;strokeWidth=1;" vertex="1" parent="1">
          <mxGeometry x="440" y="900" width="10" height="10" as="geometry" />
        </mxCell>
        <mxCell id="cibkfDz7cFinpJiNGXJI-1596" value="" style="rounded=0;whiteSpace=wrap;html=1;dashed=1;strokeWidth=1;" vertex="1" parent="1">
          <mxGeometry x="450" y="910" width="10" height="10" as="geometry" />
        </mxCell>
        <mxCell id="cibkfDz7cFinpJiNGXJI-1597" value="" style="rounded=0;whiteSpace=wrap;html=1;dashed=1;strokeWidth=1;" vertex="1" parent="1">
          <mxGeometry x="460" y="910" width="10" height="10" as="geometry" />
        </mxCell>
        <mxCell id="cibkfDz7cFinpJiNGXJI-1598" value="" style="rounded=0;whiteSpace=wrap;html=1;dashed=1;strokeWidth=1;" vertex="1" parent="1">
          <mxGeometry x="470" y="910" width="10" height="10" as="geometry" />
        </mxCell>
        <mxCell id="cibkfDz7cFinpJiNGXJI-1599" value="" style="rounded=0;whiteSpace=wrap;html=1;dashed=1;strokeWidth=1;" vertex="1" parent="1">
          <mxGeometry x="450" y="920" width="10" height="10" as="geometry" />
        </mxCell>
        <mxCell id="cibkfDz7cFinpJiNGXJI-1600" value="" style="rounded=0;whiteSpace=wrap;html=1;dashed=1;strokeWidth=1;" vertex="1" parent="1">
          <mxGeometry x="460" y="920" width="10" height="10" as="geometry" />
        </mxCell>
        <mxCell id="cibkfDz7cFinpJiNGXJI-1601" value="" style="rounded=0;whiteSpace=wrap;html=1;dashed=1;strokeWidth=1;" vertex="1" parent="1">
          <mxGeometry x="470" y="920" width="10" height="10" as="geometry" />
        </mxCell>
        <mxCell id="cibkfDz7cFinpJiNGXJI-1602" value="" style="rounded=0;whiteSpace=wrap;html=1;dashed=1;strokeWidth=1;" vertex="1" parent="1">
          <mxGeometry x="450" y="900" width="10" height="10" as="geometry" />
        </mxCell>
        <mxCell id="cibkfDz7cFinpJiNGXJI-1603" value="" style="rounded=0;whiteSpace=wrap;html=1;dashed=1;strokeWidth=1;" vertex="1" parent="1">
          <mxGeometry x="460" y="900" width="10" height="10" as="geometry" />
        </mxCell>
        <mxCell id="cibkfDz7cFinpJiNGXJI-1604" value="" style="rounded=0;whiteSpace=wrap;html=1;dashed=1;strokeWidth=1;" vertex="1" parent="1">
          <mxGeometry x="470" y="900" width="10" height="10" as="geometry" />
        </mxCell>
        <mxCell id="cibkfDz7cFinpJiNGXJI-1605" value="" style="rounded=0;whiteSpace=wrap;html=1;dashed=1;strokeWidth=1;" vertex="1" parent="1">
          <mxGeometry x="420" y="880" width="10" height="10" as="geometry" />
        </mxCell>
        <mxCell id="cibkfDz7cFinpJiNGXJI-1606" value="" style="rounded=0;whiteSpace=wrap;html=1;dashed=1;strokeWidth=1;" vertex="1" parent="1">
          <mxGeometry x="430" y="880" width="10" height="10" as="geometry" />
        </mxCell>
        <mxCell id="cibkfDz7cFinpJiNGXJI-1607" value="" style="rounded=0;whiteSpace=wrap;html=1;dashed=1;strokeWidth=1;" vertex="1" parent="1">
          <mxGeometry x="440" y="880" width="10" height="10" as="geometry" />
        </mxCell>
        <mxCell id="cibkfDz7cFinpJiNGXJI-1608" value="" style="rounded=0;whiteSpace=wrap;html=1;dashed=1;strokeWidth=1;" vertex="1" parent="1">
          <mxGeometry x="420" y="890" width="10" height="10" as="geometry" />
        </mxCell>
        <mxCell id="cibkfDz7cFinpJiNGXJI-1609" value="" style="rounded=0;whiteSpace=wrap;html=1;dashed=1;strokeWidth=1;" vertex="1" parent="1">
          <mxGeometry x="430" y="890" width="10" height="10" as="geometry" />
        </mxCell>
        <mxCell id="cibkfDz7cFinpJiNGXJI-1610" value="" style="rounded=0;whiteSpace=wrap;html=1;dashed=1;strokeWidth=1;" vertex="1" parent="1">
          <mxGeometry x="440" y="890" width="10" height="10" as="geometry" />
        </mxCell>
        <mxCell id="cibkfDz7cFinpJiNGXJI-1611" value="" style="rounded=0;whiteSpace=wrap;html=1;dashed=1;strokeWidth=1;" vertex="1" parent="1">
          <mxGeometry x="420" y="870" width="10" height="10" as="geometry" />
        </mxCell>
        <mxCell id="cibkfDz7cFinpJiNGXJI-1612" value="" style="rounded=0;whiteSpace=wrap;html=1;dashed=1;strokeWidth=1;" vertex="1" parent="1">
          <mxGeometry x="430" y="870" width="10" height="10" as="geometry" />
        </mxCell>
        <mxCell id="cibkfDz7cFinpJiNGXJI-1613" value="" style="rounded=0;whiteSpace=wrap;html=1;dashed=1;strokeWidth=1;" vertex="1" parent="1">
          <mxGeometry x="440" y="870" width="10" height="10" as="geometry" />
        </mxCell>
        <mxCell id="cibkfDz7cFinpJiNGXJI-1614" value="" style="rounded=0;whiteSpace=wrap;html=1;dashed=1;strokeWidth=1;" vertex="1" parent="1">
          <mxGeometry x="450" y="880" width="10" height="10" as="geometry" />
        </mxCell>
        <mxCell id="cibkfDz7cFinpJiNGXJI-1615" value="" style="rounded=0;whiteSpace=wrap;html=1;dashed=1;strokeWidth=1;" vertex="1" parent="1">
          <mxGeometry x="460" y="880" width="10" height="10" as="geometry" />
        </mxCell>
        <mxCell id="cibkfDz7cFinpJiNGXJI-1616" value="" style="rounded=0;whiteSpace=wrap;html=1;dashed=1;strokeWidth=1;" vertex="1" parent="1">
          <mxGeometry x="470" y="880" width="10" height="10" as="geometry" />
        </mxCell>
        <mxCell id="cibkfDz7cFinpJiNGXJI-1617" value="" style="rounded=0;whiteSpace=wrap;html=1;dashed=1;strokeWidth=1;" vertex="1" parent="1">
          <mxGeometry x="450" y="890" width="10" height="10" as="geometry" />
        </mxCell>
        <mxCell id="cibkfDz7cFinpJiNGXJI-1618" value="" style="rounded=0;whiteSpace=wrap;html=1;dashed=1;strokeWidth=1;" vertex="1" parent="1">
          <mxGeometry x="460" y="890" width="10" height="10" as="geometry" />
        </mxCell>
        <mxCell id="cibkfDz7cFinpJiNGXJI-1619" value="" style="rounded=0;whiteSpace=wrap;html=1;dashed=1;strokeWidth=1;" vertex="1" parent="1">
          <mxGeometry x="470" y="890" width="10" height="10" as="geometry" />
        </mxCell>
        <mxCell id="cibkfDz7cFinpJiNGXJI-1620" value="" style="rounded=0;whiteSpace=wrap;html=1;dashed=1;strokeWidth=1;" vertex="1" parent="1">
          <mxGeometry x="450" y="870" width="10" height="10" as="geometry" />
        </mxCell>
        <mxCell id="cibkfDz7cFinpJiNGXJI-1621" value="" style="rounded=0;whiteSpace=wrap;html=1;dashed=1;strokeWidth=1;" vertex="1" parent="1">
          <mxGeometry x="460" y="870" width="10" height="10" as="geometry" />
        </mxCell>
        <mxCell id="cibkfDz7cFinpJiNGXJI-1622" value="" style="rounded=0;whiteSpace=wrap;html=1;dashed=1;strokeWidth=1;" vertex="1" parent="1">
          <mxGeometry x="470" y="870" width="10" height="10" as="geometry" />
        </mxCell>
        <mxCell id="cibkfDz7cFinpJiNGXJI-1623" value="block" style="rounded=0;whiteSpace=wrap;html=1;strokeColor=#35b7c0;strokeWidth=2;" vertex="1" parent="1">
          <mxGeometry x="480" y="870" width="60" height="60" as="geometry" />
        </mxCell>
        <mxCell id="cibkfDz7cFinpJiNGXJI-1624" value="" style="rounded=0;whiteSpace=wrap;html=1;dashed=1;strokeWidth=1;" vertex="1" parent="1">
          <mxGeometry x="480" y="910" width="10" height="10" as="geometry" />
        </mxCell>
        <mxCell id="cibkfDz7cFinpJiNGXJI-1625" value="" style="rounded=0;whiteSpace=wrap;html=1;dashed=1;strokeWidth=1;" vertex="1" parent="1">
          <mxGeometry x="490" y="910" width="10" height="10" as="geometry" />
        </mxCell>
        <mxCell id="cibkfDz7cFinpJiNGXJI-1626" value="" style="rounded=0;whiteSpace=wrap;html=1;dashed=1;strokeWidth=1;" vertex="1" parent="1">
          <mxGeometry x="500" y="910" width="10" height="10" as="geometry" />
        </mxCell>
        <mxCell id="cibkfDz7cFinpJiNGXJI-1627" value="" style="rounded=0;whiteSpace=wrap;html=1;dashed=1;strokeWidth=1;" vertex="1" parent="1">
          <mxGeometry x="480" y="920" width="10" height="10" as="geometry" />
        </mxCell>
        <mxCell id="cibkfDz7cFinpJiNGXJI-1628" value="" style="rounded=0;whiteSpace=wrap;html=1;dashed=1;strokeWidth=1;" vertex="1" parent="1">
          <mxGeometry x="490" y="920" width="10" height="10" as="geometry" />
        </mxCell>
        <mxCell id="cibkfDz7cFinpJiNGXJI-1629" value="" style="rounded=0;whiteSpace=wrap;html=1;dashed=1;strokeWidth=1;" vertex="1" parent="1">
          <mxGeometry x="500" y="920" width="10" height="10" as="geometry" />
        </mxCell>
        <mxCell id="cibkfDz7cFinpJiNGXJI-1630" value="" style="rounded=0;whiteSpace=wrap;html=1;dashed=1;strokeWidth=1;" vertex="1" parent="1">
          <mxGeometry x="480" y="900" width="10" height="10" as="geometry" />
        </mxCell>
        <mxCell id="cibkfDz7cFinpJiNGXJI-1631" value="" style="rounded=0;whiteSpace=wrap;html=1;dashed=1;strokeWidth=1;" vertex="1" parent="1">
          <mxGeometry x="490" y="900" width="10" height="10" as="geometry" />
        </mxCell>
        <mxCell id="cibkfDz7cFinpJiNGXJI-1632" value="" style="rounded=0;whiteSpace=wrap;html=1;dashed=1;strokeWidth=1;" vertex="1" parent="1">
          <mxGeometry x="500" y="900" width="10" height="10" as="geometry" />
        </mxCell>
        <mxCell id="cibkfDz7cFinpJiNGXJI-1633" value="" style="rounded=0;whiteSpace=wrap;html=1;dashed=1;strokeWidth=1;" vertex="1" parent="1">
          <mxGeometry x="480" y="880" width="10" height="10" as="geometry" />
        </mxCell>
        <mxCell id="cibkfDz7cFinpJiNGXJI-1634" value="" style="rounded=0;whiteSpace=wrap;html=1;dashed=1;strokeWidth=1;" vertex="1" parent="1">
          <mxGeometry x="490" y="880" width="10" height="10" as="geometry" />
        </mxCell>
        <mxCell id="cibkfDz7cFinpJiNGXJI-1635" value="" style="rounded=0;whiteSpace=wrap;html=1;dashed=1;strokeWidth=1;" vertex="1" parent="1">
          <mxGeometry x="500" y="880" width="10" height="10" as="geometry" />
        </mxCell>
        <mxCell id="cibkfDz7cFinpJiNGXJI-1636" value="" style="rounded=0;whiteSpace=wrap;html=1;dashed=1;strokeWidth=1;" vertex="1" parent="1">
          <mxGeometry x="480" y="890" width="10" height="10" as="geometry" />
        </mxCell>
        <mxCell id="cibkfDz7cFinpJiNGXJI-1637" value="" style="rounded=0;whiteSpace=wrap;html=1;dashed=1;strokeWidth=1;" vertex="1" parent="1">
          <mxGeometry x="490" y="890" width="10" height="10" as="geometry" />
        </mxCell>
        <mxCell id="cibkfDz7cFinpJiNGXJI-1638" value="" style="rounded=0;whiteSpace=wrap;html=1;dashed=1;strokeWidth=1;" vertex="1" parent="1">
          <mxGeometry x="500" y="890" width="10" height="10" as="geometry" />
        </mxCell>
        <mxCell id="cibkfDz7cFinpJiNGXJI-1639" value="" style="rounded=0;whiteSpace=wrap;html=1;dashed=1;strokeWidth=1;" vertex="1" parent="1">
          <mxGeometry x="480" y="870" width="10" height="10" as="geometry" />
        </mxCell>
        <mxCell id="cibkfDz7cFinpJiNGXJI-1640" value="" style="rounded=0;whiteSpace=wrap;html=1;dashed=1;strokeWidth=1;" vertex="1" parent="1">
          <mxGeometry x="490" y="870" width="10" height="10" as="geometry" />
        </mxCell>
        <mxCell id="cibkfDz7cFinpJiNGXJI-1641" value="" style="rounded=0;whiteSpace=wrap;html=1;dashed=1;strokeWidth=1;" vertex="1" parent="1">
          <mxGeometry x="500" y="870" width="10" height="10" as="geometry" />
        </mxCell>
        <mxCell id="cibkfDz7cFinpJiNGXJI-1642" value="" style="rounded=0;whiteSpace=wrap;html=1;strokeColor=#35b7c0;strokeWidth=2;" vertex="1" parent="1">
          <mxGeometry x="420" y="810" width="60" height="60" as="geometry" />
        </mxCell>
        <mxCell id="cibkfDz7cFinpJiNGXJI-1643" value="" style="rounded=0;whiteSpace=wrap;html=1;dashed=1;strokeWidth=1;" vertex="1" parent="1">
          <mxGeometry x="420" y="850" width="10" height="10" as="geometry" />
        </mxCell>
        <mxCell id="cibkfDz7cFinpJiNGXJI-1644" value="" style="rounded=0;whiteSpace=wrap;html=1;dashed=1;strokeWidth=1;" vertex="1" parent="1">
          <mxGeometry x="430" y="850" width="10" height="10" as="geometry" />
        </mxCell>
        <mxCell id="cibkfDz7cFinpJiNGXJI-1645" value="" style="rounded=0;whiteSpace=wrap;html=1;dashed=1;strokeWidth=1;" vertex="1" parent="1">
          <mxGeometry x="440" y="850" width="10" height="10" as="geometry" />
        </mxCell>
        <mxCell id="cibkfDz7cFinpJiNGXJI-1646" value="" style="rounded=0;whiteSpace=wrap;html=1;dashed=1;strokeWidth=1;" vertex="1" parent="1">
          <mxGeometry x="420" y="860" width="10" height="10" as="geometry" />
        </mxCell>
        <mxCell id="cibkfDz7cFinpJiNGXJI-1647" value="" style="rounded=0;whiteSpace=wrap;html=1;dashed=1;strokeWidth=1;" vertex="1" parent="1">
          <mxGeometry x="430" y="860" width="10" height="10" as="geometry" />
        </mxCell>
        <mxCell id="cibkfDz7cFinpJiNGXJI-1648" value="" style="rounded=0;whiteSpace=wrap;html=1;dashed=1;strokeWidth=1;" vertex="1" parent="1">
          <mxGeometry x="440" y="860" width="10" height="10" as="geometry" />
        </mxCell>
        <mxCell id="cibkfDz7cFinpJiNGXJI-1649" value="" style="rounded=0;whiteSpace=wrap;html=1;dashed=1;strokeWidth=1;" vertex="1" parent="1">
          <mxGeometry x="420" y="840" width="10" height="10" as="geometry" />
        </mxCell>
        <mxCell id="cibkfDz7cFinpJiNGXJI-1650" value="" style="rounded=0;whiteSpace=wrap;html=1;dashed=1;strokeWidth=1;" vertex="1" parent="1">
          <mxGeometry x="430" y="840" width="10" height="10" as="geometry" />
        </mxCell>
        <mxCell id="cibkfDz7cFinpJiNGXJI-1651" value="" style="rounded=0;whiteSpace=wrap;html=1;dashed=1;strokeWidth=1;" vertex="1" parent="1">
          <mxGeometry x="440" y="840" width="10" height="10" as="geometry" />
        </mxCell>
        <mxCell id="cibkfDz7cFinpJiNGXJI-1652" value="" style="rounded=0;whiteSpace=wrap;html=1;dashed=1;strokeWidth=1;" vertex="1" parent="1">
          <mxGeometry x="450" y="850" width="10" height="10" as="geometry" />
        </mxCell>
        <mxCell id="cibkfDz7cFinpJiNGXJI-1653" value="" style="rounded=0;whiteSpace=wrap;html=1;dashed=1;strokeWidth=1;" vertex="1" parent="1">
          <mxGeometry x="460" y="850" width="10" height="10" as="geometry" />
        </mxCell>
        <mxCell id="cibkfDz7cFinpJiNGXJI-1654" value="" style="rounded=0;whiteSpace=wrap;html=1;dashed=1;strokeWidth=1;" vertex="1" parent="1">
          <mxGeometry x="470" y="850" width="10" height="10" as="geometry" />
        </mxCell>
        <mxCell id="cibkfDz7cFinpJiNGXJI-1655" value="" style="rounded=0;whiteSpace=wrap;html=1;dashed=1;strokeWidth=1;" vertex="1" parent="1">
          <mxGeometry x="450" y="860" width="10" height="10" as="geometry" />
        </mxCell>
        <mxCell id="cibkfDz7cFinpJiNGXJI-1656" value="" style="rounded=0;whiteSpace=wrap;html=1;dashed=1;strokeWidth=1;" vertex="1" parent="1">
          <mxGeometry x="460" y="860" width="10" height="10" as="geometry" />
        </mxCell>
        <mxCell id="cibkfDz7cFinpJiNGXJI-1657" value="" style="rounded=0;whiteSpace=wrap;html=1;dashed=1;strokeWidth=1;" vertex="1" parent="1">
          <mxGeometry x="470" y="860" width="10" height="10" as="geometry" />
        </mxCell>
        <mxCell id="cibkfDz7cFinpJiNGXJI-1658" value="" style="rounded=0;whiteSpace=wrap;html=1;dashed=1;strokeWidth=1;" vertex="1" parent="1">
          <mxGeometry x="450" y="840" width="10" height="10" as="geometry" />
        </mxCell>
        <mxCell id="cibkfDz7cFinpJiNGXJI-1659" value="" style="rounded=0;whiteSpace=wrap;html=1;dashed=1;strokeWidth=1;" vertex="1" parent="1">
          <mxGeometry x="460" y="840" width="10" height="10" as="geometry" />
        </mxCell>
        <mxCell id="cibkfDz7cFinpJiNGXJI-1660" value="" style="rounded=0;whiteSpace=wrap;html=1;dashed=1;strokeWidth=1;" vertex="1" parent="1">
          <mxGeometry x="470" y="840" width="10" height="10" as="geometry" />
        </mxCell>
        <mxCell id="cibkfDz7cFinpJiNGXJI-1661" value="" style="rounded=0;whiteSpace=wrap;html=1;dashed=1;strokeWidth=1;" vertex="1" parent="1">
          <mxGeometry x="420" y="820" width="10" height="10" as="geometry" />
        </mxCell>
        <mxCell id="cibkfDz7cFinpJiNGXJI-1662" value="" style="rounded=0;whiteSpace=wrap;html=1;dashed=1;strokeWidth=1;" vertex="1" parent="1">
          <mxGeometry x="430" y="820" width="10" height="10" as="geometry" />
        </mxCell>
        <mxCell id="cibkfDz7cFinpJiNGXJI-1663" value="" style="rounded=0;whiteSpace=wrap;html=1;dashed=1;strokeWidth=1;" vertex="1" parent="1">
          <mxGeometry x="440" y="820" width="10" height="10" as="geometry" />
        </mxCell>
        <mxCell id="cibkfDz7cFinpJiNGXJI-1664" value="" style="rounded=0;whiteSpace=wrap;html=1;dashed=1;strokeWidth=1;" vertex="1" parent="1">
          <mxGeometry x="420" y="830" width="10" height="10" as="geometry" />
        </mxCell>
        <mxCell id="cibkfDz7cFinpJiNGXJI-1665" value="" style="rounded=0;whiteSpace=wrap;html=1;dashed=1;strokeWidth=1;" vertex="1" parent="1">
          <mxGeometry x="430" y="830" width="10" height="10" as="geometry" />
        </mxCell>
        <mxCell id="cibkfDz7cFinpJiNGXJI-1666" value="" style="rounded=0;whiteSpace=wrap;html=1;dashed=1;strokeWidth=1;" vertex="1" parent="1">
          <mxGeometry x="440" y="830" width="10" height="10" as="geometry" />
        </mxCell>
        <mxCell id="cibkfDz7cFinpJiNGXJI-1667" value="" style="rounded=0;whiteSpace=wrap;html=1;dashed=1;strokeWidth=1;" vertex="1" parent="1">
          <mxGeometry x="420" y="810" width="10" height="10" as="geometry" />
        </mxCell>
        <mxCell id="cibkfDz7cFinpJiNGXJI-1668" value="" style="rounded=0;whiteSpace=wrap;html=1;dashed=1;strokeWidth=1;" vertex="1" parent="1">
          <mxGeometry x="430" y="810" width="10" height="10" as="geometry" />
        </mxCell>
        <mxCell id="cibkfDz7cFinpJiNGXJI-1669" value="" style="rounded=0;whiteSpace=wrap;html=1;dashed=1;strokeWidth=1;" vertex="1" parent="1">
          <mxGeometry x="440" y="810" width="10" height="10" as="geometry" />
        </mxCell>
        <mxCell id="cibkfDz7cFinpJiNGXJI-1670" value="" style="rounded=0;whiteSpace=wrap;html=1;dashed=1;strokeWidth=1;" vertex="1" parent="1">
          <mxGeometry x="450" y="820" width="10" height="10" as="geometry" />
        </mxCell>
        <mxCell id="cibkfDz7cFinpJiNGXJI-1671" value="" style="rounded=0;whiteSpace=wrap;html=1;dashed=1;strokeWidth=1;" vertex="1" parent="1">
          <mxGeometry x="460" y="820" width="10" height="10" as="geometry" />
        </mxCell>
        <mxCell id="cibkfDz7cFinpJiNGXJI-1672" value="" style="rounded=0;whiteSpace=wrap;html=1;dashed=1;strokeWidth=1;" vertex="1" parent="1">
          <mxGeometry x="470" y="820" width="10" height="10" as="geometry" />
        </mxCell>
        <mxCell id="cibkfDz7cFinpJiNGXJI-1673" value="" style="rounded=0;whiteSpace=wrap;html=1;dashed=1;strokeWidth=1;" vertex="1" parent="1">
          <mxGeometry x="450" y="830" width="10" height="10" as="geometry" />
        </mxCell>
        <mxCell id="cibkfDz7cFinpJiNGXJI-1674" value="" style="rounded=0;whiteSpace=wrap;html=1;dashed=1;strokeWidth=1;" vertex="1" parent="1">
          <mxGeometry x="460" y="830" width="10" height="10" as="geometry" />
        </mxCell>
        <mxCell id="cibkfDz7cFinpJiNGXJI-1675" value="" style="rounded=0;whiteSpace=wrap;html=1;dashed=1;strokeWidth=1;" vertex="1" parent="1">
          <mxGeometry x="470" y="830" width="10" height="10" as="geometry" />
        </mxCell>
        <mxCell id="cibkfDz7cFinpJiNGXJI-1676" value="" style="rounded=0;whiteSpace=wrap;html=1;dashed=1;strokeWidth=1;" vertex="1" parent="1">
          <mxGeometry x="450" y="810" width="10" height="10" as="geometry" />
        </mxCell>
        <mxCell id="cibkfDz7cFinpJiNGXJI-1677" value="" style="rounded=0;whiteSpace=wrap;html=1;dashed=1;strokeWidth=1;" vertex="1" parent="1">
          <mxGeometry x="460" y="810" width="10" height="10" as="geometry" />
        </mxCell>
        <mxCell id="cibkfDz7cFinpJiNGXJI-1678" value="" style="rounded=0;whiteSpace=wrap;html=1;dashed=1;strokeWidth=1;" vertex="1" parent="1">
          <mxGeometry x="470" y="810" width="10" height="10" as="geometry" />
        </mxCell>
        <mxCell id="cibkfDz7cFinpJiNGXJI-1679" value="block" style="rounded=0;whiteSpace=wrap;html=1;strokeColor=#35b7c0;strokeWidth=2;" vertex="1" parent="1">
          <mxGeometry x="480" y="810" width="60" height="60" as="geometry" />
        </mxCell>
        <mxCell id="cibkfDz7cFinpJiNGXJI-1680" value="" style="rounded=0;whiteSpace=wrap;html=1;dashed=1;strokeWidth=1;" vertex="1" parent="1">
          <mxGeometry x="480" y="850" width="10" height="10" as="geometry" />
        </mxCell>
        <mxCell id="cibkfDz7cFinpJiNGXJI-1681" value="" style="rounded=0;whiteSpace=wrap;html=1;dashed=1;strokeWidth=1;" vertex="1" parent="1">
          <mxGeometry x="490" y="850" width="10" height="10" as="geometry" />
        </mxCell>
        <mxCell id="cibkfDz7cFinpJiNGXJI-1682" value="" style="rounded=0;whiteSpace=wrap;html=1;dashed=1;strokeWidth=1;" vertex="1" parent="1">
          <mxGeometry x="500" y="850" width="10" height="10" as="geometry" />
        </mxCell>
        <mxCell id="cibkfDz7cFinpJiNGXJI-1683" value="" style="rounded=0;whiteSpace=wrap;html=1;dashed=1;strokeWidth=1;" vertex="1" parent="1">
          <mxGeometry x="480" y="860" width="10" height="10" as="geometry" />
        </mxCell>
        <mxCell id="cibkfDz7cFinpJiNGXJI-1684" value="" style="rounded=0;whiteSpace=wrap;html=1;dashed=1;strokeWidth=1;" vertex="1" parent="1">
          <mxGeometry x="490" y="860" width="10" height="10" as="geometry" />
        </mxCell>
        <mxCell id="cibkfDz7cFinpJiNGXJI-1685" value="" style="rounded=0;whiteSpace=wrap;html=1;dashed=1;strokeWidth=1;" vertex="1" parent="1">
          <mxGeometry x="500" y="860" width="10" height="10" as="geometry" />
        </mxCell>
        <mxCell id="cibkfDz7cFinpJiNGXJI-1686" value="" style="rounded=0;whiteSpace=wrap;html=1;dashed=1;strokeWidth=1;" vertex="1" parent="1">
          <mxGeometry x="480" y="840" width="10" height="10" as="geometry" />
        </mxCell>
        <mxCell id="cibkfDz7cFinpJiNGXJI-1687" value="" style="rounded=0;whiteSpace=wrap;html=1;dashed=1;strokeWidth=1;" vertex="1" parent="1">
          <mxGeometry x="490" y="840" width="10" height="10" as="geometry" />
        </mxCell>
        <mxCell id="cibkfDz7cFinpJiNGXJI-1688" value="" style="rounded=0;whiteSpace=wrap;html=1;dashed=1;strokeWidth=1;" vertex="1" parent="1">
          <mxGeometry x="500" y="840" width="10" height="10" as="geometry" />
        </mxCell>
        <mxCell id="cibkfDz7cFinpJiNGXJI-1689" value="" style="rounded=0;whiteSpace=wrap;html=1;dashed=1;strokeWidth=1;" vertex="1" parent="1">
          <mxGeometry x="480" y="820" width="10" height="10" as="geometry" />
        </mxCell>
        <mxCell id="cibkfDz7cFinpJiNGXJI-1690" value="" style="rounded=0;whiteSpace=wrap;html=1;dashed=1;strokeWidth=1;" vertex="1" parent="1">
          <mxGeometry x="490" y="820" width="10" height="10" as="geometry" />
        </mxCell>
        <mxCell id="cibkfDz7cFinpJiNGXJI-1691" value="" style="rounded=0;whiteSpace=wrap;html=1;dashed=1;strokeWidth=1;" vertex="1" parent="1">
          <mxGeometry x="500" y="820" width="10" height="10" as="geometry" />
        </mxCell>
        <mxCell id="cibkfDz7cFinpJiNGXJI-1692" value="" style="rounded=0;whiteSpace=wrap;html=1;dashed=1;strokeWidth=1;" vertex="1" parent="1">
          <mxGeometry x="480" y="830" width="10" height="10" as="geometry" />
        </mxCell>
        <mxCell id="cibkfDz7cFinpJiNGXJI-1693" value="" style="rounded=0;whiteSpace=wrap;html=1;dashed=1;strokeWidth=1;" vertex="1" parent="1">
          <mxGeometry x="490" y="830" width="10" height="10" as="geometry" />
        </mxCell>
        <mxCell id="cibkfDz7cFinpJiNGXJI-1694" value="" style="rounded=0;whiteSpace=wrap;html=1;dashed=1;strokeWidth=1;" vertex="1" parent="1">
          <mxGeometry x="500" y="830" width="10" height="10" as="geometry" />
        </mxCell>
        <mxCell id="cibkfDz7cFinpJiNGXJI-1695" value="" style="rounded=0;whiteSpace=wrap;html=1;dashed=1;strokeWidth=1;" vertex="1" parent="1">
          <mxGeometry x="480" y="810" width="10" height="10" as="geometry" />
        </mxCell>
        <mxCell id="cibkfDz7cFinpJiNGXJI-1696" value="" style="rounded=0;whiteSpace=wrap;html=1;dashed=1;strokeWidth=1;" vertex="1" parent="1">
          <mxGeometry x="490" y="810" width="10" height="10" as="geometry" />
        </mxCell>
        <mxCell id="cibkfDz7cFinpJiNGXJI-1697" value="" style="rounded=0;whiteSpace=wrap;html=1;dashed=1;strokeWidth=1;" vertex="1" parent="1">
          <mxGeometry x="500" y="810" width="10" height="10" as="geometry" />
        </mxCell>
        <mxCell id="cibkfDz7cFinpJiNGXJI-1698" value="" style="rounded=0;whiteSpace=wrap;html=1;dashed=1;strokeWidth=1;" vertex="1" parent="1">
          <mxGeometry x="480" y="950" width="10" height="10" as="geometry" />
        </mxCell>
        <mxCell id="cibkfDz7cFinpJiNGXJI-1699" value="" style="rounded=0;whiteSpace=wrap;html=1;dashed=1;strokeWidth=1;" vertex="1" parent="1">
          <mxGeometry x="490" y="950" width="10" height="10" as="geometry" />
        </mxCell>
        <mxCell id="cibkfDz7cFinpJiNGXJI-1700" value="" style="rounded=0;whiteSpace=wrap;html=1;dashed=1;strokeWidth=1;" vertex="1" parent="1">
          <mxGeometry x="500" y="950" width="10" height="10" as="geometry" />
        </mxCell>
        <mxCell id="cibkfDz7cFinpJiNGXJI-1701" value="" style="rounded=0;whiteSpace=wrap;html=1;dashed=1;strokeWidth=1;" vertex="1" parent="1">
          <mxGeometry x="480" y="930" width="10" height="10" as="geometry" />
        </mxCell>
        <mxCell id="cibkfDz7cFinpJiNGXJI-1702" value="" style="rounded=0;whiteSpace=wrap;html=1;dashed=1;strokeWidth=1;" vertex="1" parent="1">
          <mxGeometry x="490" y="930" width="10" height="10" as="geometry" />
        </mxCell>
        <mxCell id="cibkfDz7cFinpJiNGXJI-1703" value="" style="rounded=0;whiteSpace=wrap;html=1;dashed=1;strokeWidth=1;" vertex="1" parent="1">
          <mxGeometry x="480" y="940" width="10" height="10" as="geometry" />
        </mxCell>
        <mxCell id="cibkfDz7cFinpJiNGXJI-1704" value="" style="rounded=0;whiteSpace=wrap;html=1;dashed=1;strokeWidth=1;" vertex="1" parent="1">
          <mxGeometry x="490" y="940" width="10" height="10" as="geometry" />
        </mxCell>
        <mxCell id="cibkfDz7cFinpJiNGXJI-1705" value="" style="rounded=0;whiteSpace=wrap;html=1;dashed=1;strokeWidth=1;" vertex="1" parent="1">
          <mxGeometry x="500" y="930" width="10" height="10" as="geometry" />
        </mxCell>
        <mxCell id="cibkfDz7cFinpJiNGXJI-1706" value="" style="rounded=0;whiteSpace=wrap;html=1;dashed=1;strokeWidth=1;" vertex="1" parent="1">
          <mxGeometry x="500" y="940" width="10" height="10" as="geometry" />
        </mxCell>
        <mxCell id="cibkfDz7cFinpJiNGXJI-1707" value="" style="rounded=0;whiteSpace=wrap;html=1;dashed=1;strokeWidth=1;" vertex="1" parent="1">
          <mxGeometry x="300" y="950" width="10" height="10" as="geometry" />
        </mxCell>
        <mxCell id="cibkfDz7cFinpJiNGXJI-1708" value="" style="rounded=0;whiteSpace=wrap;html=1;dashed=1;strokeWidth=1;" vertex="1" parent="1">
          <mxGeometry x="310" y="950" width="10" height="10" as="geometry" />
        </mxCell>
        <mxCell id="cibkfDz7cFinpJiNGXJI-1709" value="" style="rounded=0;whiteSpace=wrap;html=1;dashed=1;strokeWidth=1;" vertex="1" parent="1">
          <mxGeometry x="320" y="950" width="10" height="10" as="geometry" />
        </mxCell>
        <mxCell id="cibkfDz7cFinpJiNGXJI-1710" value="" style="rounded=0;whiteSpace=wrap;html=1;dashed=1;strokeWidth=1;" vertex="1" parent="1">
          <mxGeometry x="330" y="950" width="10" height="10" as="geometry" />
        </mxCell>
        <mxCell id="cibkfDz7cFinpJiNGXJI-1711" value="" style="rounded=0;whiteSpace=wrap;html=1;dashed=1;strokeWidth=1;" vertex="1" parent="1">
          <mxGeometry x="340" y="950" width="10" height="10" as="geometry" />
        </mxCell>
        <mxCell id="cibkfDz7cFinpJiNGXJI-1712" value="" style="rounded=0;whiteSpace=wrap;html=1;dashed=1;strokeWidth=1;" vertex="1" parent="1">
          <mxGeometry x="350" y="950" width="10" height="10" as="geometry" />
        </mxCell>
        <mxCell id="cibkfDz7cFinpJiNGXJI-1713" value="" style="rounded=0;whiteSpace=wrap;html=1;dashed=1;strokeWidth=1;" vertex="1" parent="1">
          <mxGeometry x="300" y="930" width="10" height="10" as="geometry" />
        </mxCell>
        <mxCell id="cibkfDz7cFinpJiNGXJI-1714" value="" style="rounded=0;whiteSpace=wrap;html=1;dashed=1;strokeWidth=1;" vertex="1" parent="1">
          <mxGeometry x="310" y="930" width="10" height="10" as="geometry" />
        </mxCell>
        <mxCell id="cibkfDz7cFinpJiNGXJI-1715" value="" style="rounded=0;whiteSpace=wrap;html=1;dashed=1;strokeWidth=1;" vertex="1" parent="1">
          <mxGeometry x="320" y="930" width="10" height="10" as="geometry" />
        </mxCell>
        <mxCell id="cibkfDz7cFinpJiNGXJI-1716" value="" style="rounded=0;whiteSpace=wrap;html=1;dashed=1;strokeWidth=1;" vertex="1" parent="1">
          <mxGeometry x="300" y="940" width="10" height="10" as="geometry" />
        </mxCell>
        <mxCell id="cibkfDz7cFinpJiNGXJI-1717" value="" style="rounded=0;whiteSpace=wrap;html=1;dashed=1;strokeWidth=1;" vertex="1" parent="1">
          <mxGeometry x="310" y="940" width="10" height="10" as="geometry" />
        </mxCell>
        <mxCell id="cibkfDz7cFinpJiNGXJI-1718" value="" style="rounded=0;whiteSpace=wrap;html=1;dashed=1;strokeWidth=1;" vertex="1" parent="1">
          <mxGeometry x="320" y="940" width="10" height="10" as="geometry" />
        </mxCell>
        <mxCell id="cibkfDz7cFinpJiNGXJI-1719" value="" style="rounded=0;whiteSpace=wrap;html=1;dashed=1;strokeWidth=1;" vertex="1" parent="1">
          <mxGeometry x="330" y="930" width="10" height="10" as="geometry" />
        </mxCell>
        <mxCell id="cibkfDz7cFinpJiNGXJI-1720" value="" style="rounded=0;whiteSpace=wrap;html=1;dashed=1;strokeWidth=1;" vertex="1" parent="1">
          <mxGeometry x="340" y="930" width="10" height="10" as="geometry" />
        </mxCell>
        <mxCell id="cibkfDz7cFinpJiNGXJI-1721" value="" style="rounded=0;whiteSpace=wrap;html=1;dashed=1;strokeWidth=1;" vertex="1" parent="1">
          <mxGeometry x="350" y="930" width="10" height="10" as="geometry" />
        </mxCell>
        <mxCell id="cibkfDz7cFinpJiNGXJI-1722" value="" style="rounded=0;whiteSpace=wrap;html=1;dashed=1;strokeWidth=1;" vertex="1" parent="1">
          <mxGeometry x="330" y="940" width="10" height="10" as="geometry" />
        </mxCell>
        <mxCell id="cibkfDz7cFinpJiNGXJI-1723" value="" style="rounded=0;whiteSpace=wrap;html=1;dashed=1;strokeWidth=1;" vertex="1" parent="1">
          <mxGeometry x="340" y="940" width="10" height="10" as="geometry" />
        </mxCell>
        <mxCell id="cibkfDz7cFinpJiNGXJI-1724" value="" style="rounded=0;whiteSpace=wrap;html=1;dashed=1;strokeWidth=1;" vertex="1" parent="1">
          <mxGeometry x="350" y="940" width="10" height="10" as="geometry" />
        </mxCell>
        <mxCell id="cibkfDz7cFinpJiNGXJI-1725" value="" style="rounded=0;whiteSpace=wrap;html=1;dashed=1;strokeWidth=1;" vertex="1" parent="1">
          <mxGeometry x="360" y="950" width="10" height="10" as="geometry" />
        </mxCell>
        <mxCell id="cibkfDz7cFinpJiNGXJI-1726" value="" style="rounded=0;whiteSpace=wrap;html=1;dashed=1;strokeWidth=1;" vertex="1" parent="1">
          <mxGeometry x="370" y="950" width="10" height="10" as="geometry" />
        </mxCell>
        <mxCell id="cibkfDz7cFinpJiNGXJI-1727" value="" style="rounded=0;whiteSpace=wrap;html=1;dashed=1;strokeWidth=1;" vertex="1" parent="1">
          <mxGeometry x="380" y="950" width="10" height="10" as="geometry" />
        </mxCell>
        <mxCell id="cibkfDz7cFinpJiNGXJI-1728" value="" style="rounded=0;whiteSpace=wrap;html=1;dashed=1;strokeWidth=1;" vertex="1" parent="1">
          <mxGeometry x="390" y="950" width="10" height="10" as="geometry" />
        </mxCell>
        <mxCell id="cibkfDz7cFinpJiNGXJI-1729" value="" style="rounded=0;whiteSpace=wrap;html=1;dashed=1;strokeWidth=1;" vertex="1" parent="1">
          <mxGeometry x="400" y="950" width="10" height="10" as="geometry" />
        </mxCell>
        <mxCell id="cibkfDz7cFinpJiNGXJI-1730" value="" style="rounded=0;whiteSpace=wrap;html=1;dashed=1;strokeWidth=1;" vertex="1" parent="1">
          <mxGeometry x="410" y="950" width="10" height="10" as="geometry" />
        </mxCell>
        <mxCell id="cibkfDz7cFinpJiNGXJI-1731" value="" style="rounded=0;whiteSpace=wrap;html=1;dashed=1;strokeWidth=1;" vertex="1" parent="1">
          <mxGeometry x="360" y="930" width="10" height="10" as="geometry" />
        </mxCell>
        <mxCell id="cibkfDz7cFinpJiNGXJI-1732" value="" style="rounded=0;whiteSpace=wrap;html=1;dashed=1;strokeWidth=1;" vertex="1" parent="1">
          <mxGeometry x="370" y="930" width="10" height="10" as="geometry" />
        </mxCell>
        <mxCell id="cibkfDz7cFinpJiNGXJI-1733" value="" style="rounded=0;whiteSpace=wrap;html=1;dashed=1;strokeWidth=1;" vertex="1" parent="1">
          <mxGeometry x="380" y="930" width="10" height="10" as="geometry" />
        </mxCell>
        <mxCell id="cibkfDz7cFinpJiNGXJI-1734" value="" style="rounded=0;whiteSpace=wrap;html=1;dashed=1;strokeWidth=1;" vertex="1" parent="1">
          <mxGeometry x="360" y="940" width="10" height="10" as="geometry" />
        </mxCell>
        <mxCell id="cibkfDz7cFinpJiNGXJI-1735" value="" style="rounded=0;whiteSpace=wrap;html=1;dashed=1;strokeWidth=1;" vertex="1" parent="1">
          <mxGeometry x="370" y="940" width="10" height="10" as="geometry" />
        </mxCell>
        <mxCell id="cibkfDz7cFinpJiNGXJI-1736" value="" style="rounded=0;whiteSpace=wrap;html=1;dashed=1;strokeWidth=1;" vertex="1" parent="1">
          <mxGeometry x="380" y="940" width="10" height="10" as="geometry" />
        </mxCell>
        <mxCell id="cibkfDz7cFinpJiNGXJI-1737" value="" style="rounded=0;whiteSpace=wrap;html=1;dashed=1;strokeWidth=1;" vertex="1" parent="1">
          <mxGeometry x="390" y="930" width="10" height="10" as="geometry" />
        </mxCell>
        <mxCell id="cibkfDz7cFinpJiNGXJI-1738" value="" style="rounded=0;whiteSpace=wrap;html=1;dashed=1;strokeWidth=1;" vertex="1" parent="1">
          <mxGeometry x="400" y="930" width="10" height="10" as="geometry" />
        </mxCell>
        <mxCell id="cibkfDz7cFinpJiNGXJI-1739" value="" style="rounded=0;whiteSpace=wrap;html=1;dashed=1;strokeWidth=1;" vertex="1" parent="1">
          <mxGeometry x="410" y="930" width="10" height="10" as="geometry" />
        </mxCell>
        <mxCell id="cibkfDz7cFinpJiNGXJI-1740" value="" style="rounded=0;whiteSpace=wrap;html=1;dashed=1;strokeWidth=1;" vertex="1" parent="1">
          <mxGeometry x="390" y="940" width="10" height="10" as="geometry" />
        </mxCell>
        <mxCell id="cibkfDz7cFinpJiNGXJI-1741" value="" style="rounded=0;whiteSpace=wrap;html=1;dashed=1;strokeWidth=1;" vertex="1" parent="1">
          <mxGeometry x="400" y="940" width="10" height="10" as="geometry" />
        </mxCell>
        <mxCell id="cibkfDz7cFinpJiNGXJI-1742" value="" style="rounded=0;whiteSpace=wrap;html=1;dashed=1;strokeWidth=1;" vertex="1" parent="1">
          <mxGeometry x="410" y="940" width="10" height="10" as="geometry" />
        </mxCell>
        <mxCell id="cibkfDz7cFinpJiNGXJI-1743" value="" style="rounded=0;whiteSpace=wrap;html=1;dashed=1;strokeWidth=1;" vertex="1" parent="1">
          <mxGeometry x="420" y="950" width="10" height="10" as="geometry" />
        </mxCell>
        <mxCell id="cibkfDz7cFinpJiNGXJI-1744" value="" style="rounded=0;whiteSpace=wrap;html=1;dashed=1;strokeWidth=1;" vertex="1" parent="1">
          <mxGeometry x="430" y="950" width="10" height="10" as="geometry" />
        </mxCell>
        <mxCell id="cibkfDz7cFinpJiNGXJI-1745" value="" style="rounded=0;whiteSpace=wrap;html=1;dashed=1;strokeWidth=1;" vertex="1" parent="1">
          <mxGeometry x="440" y="950" width="10" height="10" as="geometry" />
        </mxCell>
        <mxCell id="cibkfDz7cFinpJiNGXJI-1746" value="" style="rounded=0;whiteSpace=wrap;html=1;dashed=1;strokeWidth=1;" vertex="1" parent="1">
          <mxGeometry x="450" y="950" width="10" height="10" as="geometry" />
        </mxCell>
        <mxCell id="cibkfDz7cFinpJiNGXJI-1747" value="" style="rounded=0;whiteSpace=wrap;html=1;dashed=1;strokeWidth=1;" vertex="1" parent="1">
          <mxGeometry x="460" y="950" width="10" height="10" as="geometry" />
        </mxCell>
        <mxCell id="cibkfDz7cFinpJiNGXJI-1748" value="" style="rounded=0;whiteSpace=wrap;html=1;dashed=1;strokeWidth=1;" vertex="1" parent="1">
          <mxGeometry x="470" y="950" width="10" height="10" as="geometry" />
        </mxCell>
        <mxCell id="cibkfDz7cFinpJiNGXJI-1749" value="" style="rounded=0;whiteSpace=wrap;html=1;dashed=1;strokeWidth=1;" vertex="1" parent="1">
          <mxGeometry x="420" y="930" width="10" height="10" as="geometry" />
        </mxCell>
        <mxCell id="cibkfDz7cFinpJiNGXJI-1750" value="" style="rounded=0;whiteSpace=wrap;html=1;dashed=1;strokeWidth=1;" vertex="1" parent="1">
          <mxGeometry x="430" y="930" width="10" height="10" as="geometry" />
        </mxCell>
        <mxCell id="cibkfDz7cFinpJiNGXJI-1751" value="" style="rounded=0;whiteSpace=wrap;html=1;dashed=1;strokeWidth=1;" vertex="1" parent="1">
          <mxGeometry x="440" y="930" width="10" height="10" as="geometry" />
        </mxCell>
        <mxCell id="cibkfDz7cFinpJiNGXJI-1752" value="" style="rounded=0;whiteSpace=wrap;html=1;dashed=1;strokeWidth=1;" vertex="1" parent="1">
          <mxGeometry x="420" y="940" width="10" height="10" as="geometry" />
        </mxCell>
        <mxCell id="cibkfDz7cFinpJiNGXJI-1753" value="" style="rounded=0;whiteSpace=wrap;html=1;dashed=1;strokeWidth=1;" vertex="1" parent="1">
          <mxGeometry x="430" y="940" width="10" height="10" as="geometry" />
        </mxCell>
        <mxCell id="cibkfDz7cFinpJiNGXJI-1754" value="" style="rounded=0;whiteSpace=wrap;html=1;dashed=1;strokeWidth=1;" vertex="1" parent="1">
          <mxGeometry x="440" y="940" width="10" height="10" as="geometry" />
        </mxCell>
        <mxCell id="cibkfDz7cFinpJiNGXJI-1755" value="" style="rounded=0;whiteSpace=wrap;html=1;dashed=1;strokeWidth=1;" vertex="1" parent="1">
          <mxGeometry x="450" y="930" width="10" height="10" as="geometry" />
        </mxCell>
        <mxCell id="cibkfDz7cFinpJiNGXJI-1756" value="" style="rounded=0;whiteSpace=wrap;html=1;dashed=1;strokeWidth=1;" vertex="1" parent="1">
          <mxGeometry x="460" y="930" width="10" height="10" as="geometry" />
        </mxCell>
        <mxCell id="cibkfDz7cFinpJiNGXJI-1757" value="" style="rounded=0;whiteSpace=wrap;html=1;dashed=1;strokeWidth=1;" vertex="1" parent="1">
          <mxGeometry x="470" y="930" width="10" height="10" as="geometry" />
        </mxCell>
        <mxCell id="cibkfDz7cFinpJiNGXJI-1758" value="" style="rounded=0;whiteSpace=wrap;html=1;dashed=1;strokeWidth=1;" vertex="1" parent="1">
          <mxGeometry x="450" y="940" width="10" height="10" as="geometry" />
        </mxCell>
        <mxCell id="cibkfDz7cFinpJiNGXJI-1759" value="" style="rounded=0;whiteSpace=wrap;html=1;dashed=1;strokeWidth=1;" vertex="1" parent="1">
          <mxGeometry x="460" y="940" width="10" height="10" as="geometry" />
        </mxCell>
        <mxCell id="cibkfDz7cFinpJiNGXJI-1760" value="" style="rounded=0;whiteSpace=wrap;html=1;dashed=1;strokeWidth=1;" vertex="1" parent="1">
          <mxGeometry x="470" y="940" width="10" height="10" as="geometry" />
        </mxCell>
        <mxCell id="cibkfDz7cFinpJiNGXJI-1761" value="" style="verticalLabelPosition=bottom;shadow=0;dashed=0;align=center;html=1;verticalAlign=top;strokeWidth=1;shape=mxgraph.mockup.markup.curlyBrace;whiteSpace=wrap;strokeColor=#999999;" vertex="1" parent="1">
          <mxGeometry x="300" y="800" width="55" height="10" as="geometry" />
        </mxCell>
        <mxCell id="cibkfDz7cFinpJiNGXJI-1762" value="32" style="text;html=1;align=center;verticalAlign=middle;resizable=0;points=[];autosize=1;strokeColor=none;fillColor=none;" vertex="1" parent="1">
          <mxGeometry x="307.5" y="780" width="40" height="30" as="geometry" />
        </mxCell>
        <mxCell id="cibkfDz7cFinpJiNGXJI-1763" value="" style="verticalLabelPosition=bottom;shadow=0;dashed=0;align=center;html=1;verticalAlign=top;strokeWidth=1;shape=mxgraph.mockup.markup.curlyBrace;whiteSpace=wrap;strokeColor=#999999;rotation=-90;" vertex="1" parent="1">
          <mxGeometry x="265" y="830" width="55" height="10" as="geometry" />
        </mxCell>
        <mxCell id="cibkfDz7cFinpJiNGXJI-1764" value="32" style="text;html=1;align=center;verticalAlign=middle;resizable=0;points=[];autosize=1;strokeColor=none;fillColor=none;" vertex="1" parent="1">
          <mxGeometry x="260" y="820" width="40" height="30" as="geometry" />
        </mxCell>
        <mxCell id="cibkfDz7cFinpJiNGXJI-1765" value="grid" style="text;html=1;align=center;verticalAlign=middle;resizable=0;points=[];autosize=1;strokeColor=none;fillColor=none;" vertex="1" parent="1">
          <mxGeometry x="250" y="880" width="40" height="30" as="geometry" />
        </mxCell>
      </root>
    </mxGraphModel>
  </diagram>
</mxfile>
